mtllib base_stairs_locked.mtl
# vertices
v -56 -128 -320
v -56 -128 -0
v -56 0 -0
v -56 0 -320
v -24 0 -0
v -24 -128 -0
v -24 -128 -320
v -24 0 -320
v 24 -128 -146
v 24 -128 -0
v 24 0 -0
v 24 0 -146
v 88 0 -0
v 88 -128 -0
v 88 -128 -146
v 88 0 -146
v -56 -144 -320
v -56 -144 -146
v -56 -128 -146
v -56 -128 -320
v 144 -128 -146
v 144 -144 -146
v 144 -144 -320
v 144 -128 -320
v -24 -128 -320
v -24 -128 -256
v -24 0 -256
v -24 0 -320
v 144 0 -256
v 144 -128 -256
v 144 -128 -320
v 144 0 -320
v 136 -128 -272
v 136 -128 -0
v 136 0 -0
v 136 0 -272
v 164 0 -0
v 164 -128 -0
v 164 -128 -272
v 164 0 -272
v 88 -32 -146
v 88 -32 -26
v 88 -8 -26
v 88 -8 -146
v 138 -8 -26
v 138 -32 -26
v 138 -32 -146
v 138 -8 -146
v 88 -128 -48
v 88 -128 -0
v 88 -8 -0
v 88 -8 -48
v 144 -8 -0
v 144 -128 -0
v 144 -128 -48
v 144 -8 -48
v 88 -8 -146
v 88 -8 -122
v 88 0 -122
v 88 0 -146
v 136 0 -122
v 136 -8 -122
v 136 -8 -146
v 136 0 -146
v -24 -32 -256
v -24 -32 -146
v -24 0 -146
v -24 0 -256
v 136 0 -146
v 136 -32 -146
v 136 -32 -256
v 136 0 -256
v 88 -136 -146
v 88 -136 -132
v 88 -32 -132
v 88 -32 -146
v 136 -32 -132
v 136 -136 -132
v 136 -136 -146
v 136 -32 -146
v -24 -8 -8
v -24 -8 -0
v -24 0 -0
v -24 0 -8
v 24 0 -0
v 24 -8 -0
v 24 -8 -8
v 24 0 -8
v -24 -120 -120
v -24 -104 -104
v -24 -104 -120
v 24 -104 -104
v 24 -120 -120
v 24 -104 -120
v -24 -144 -146
v -24 -144 -130
v -24 -128 -130
v -24 -128 -146
v 24 -128 -130
v 24 -144 -130
v 24 -144 -146
v 24 -128 -146
v -24 -40 -40
v -24 -24 -24
v -24 -24 -40
v 24 -24 -24
v 24 -40 -40
v 24 -24 -40
v -24 -104 -104
v -24 -88 -88
v -24 -88 -104
v 24 -88 -88
v 24 -104 -104
v 24 -88 -104
v -24 -80 -80
v -24 -64 -64
v -24 -64 -80
v 24 -64 -64
v 24 -80 -80
v 24 -64 -80
v -24 -56 -56
v -24 -40 -40
v -24 -40 -56
v 24 -40 -40
v 24 -56 -56
v 24 -40 -56
v -24 -96 -96
v -24 -80 -80
v -24 -80 -96
v 24 -80 -80
v 24 -96 -96
v 24 -80 -96
v -24 -128 -128
v -24 -112 -112
v -24 -112 -128
v 24 -112 -112
v 24 -128 -128
v 24 -112 -128
v -24 -32 -32
v -24 -16 -16
v -24 -16 -32
v 24 -16 -16
v 24 -32 -32
v 24 -16 -32
v -24 -144 -144
v -24 -8 -8
v -24 0 -8
v -24 -136 -144
v 24 0 -8
v 24 -8 -8
v 24 -144 -144
v 24 -136 -144
v -24 -64 -64
v -24 -48 -48
v -24 -48 -64
v 24 -48 -48
v 24 -64 -64
v 24 -48 -64
v -24 -16 -16
v -24 0 -0
v -24 0 -16
v 24 0 -0
v 24 -16 -16
v 24 0 -16
v -24 -136 -136
v -24 -120 -120
v -24 -120 -136
v 24 -120 -120
v 24 -136 -136
v 24 -120 -136
v -24 -72 -72
v -24 -56 -56
v -24 -56 -72
v 24 -56 -56
v 24 -72 -72
v 24 -56 -72
v -24 -88 -88
v -24 -72 -72
v -24 -72 -88
v 24 -72 -72
v 24 -88 -88
v 24 -72 -88
v -24 -112 -112
v -24 -96 -96
v -24 -96 -112
v 24 -96 -96
v 24 -112 -112
v 24 -96 -112
v -24 -48 -48
v -24 -32 -32
v -24 -32 -48
v 24 -32 -32
v 24 -48 -48
v 24 -32 -48
v -24 -24 -24
v -24 -8 -8
v -24 -8 -24
v 24 -8 -8
v 24 -24 -24
v 24 -8 -24

# texture coordinates
vt 4.625 -2
vt -0.375 -2
vt -0.375 -0
vt 4.625 -0
vt -0.875 -0
vt -0.875 -2
vt -0.375 -0.375
vt -0.875 -0.375
vt -0.875 4.625
vt -0.375 4.625
vt 0.125 6
vt -0.375 6
vt -0.375 1
vt 0.125 1
vt 4.75 -0
vt -0.25 -0
vt -0.25 -2
vt 4.75 -2
vt 2.28125 -2
vt 0 -2
vt 0 -0
vt 2.28125 -0
vt 1.125 -0
vt 0.125 -0
vt 0.125 -2
vt 1.125 -2
vt 1.125 -0.375
vt 0.125 -0.375
vt 0.125 1.90625
vt 1.125 1.90625
vt 1.625 2.28125
vt 0.625 2.28125
vt 0.625 -0
vt 1.625 -0
vt 1.25 -2
vt 0.25 -2
vt 0.25 -0
vt 1.25 -0
vt 2.53125 -0
vt 2.53125 -2
vt 4.75 -2.5
vt 2.03125 -2.5
vt 2.03125 -2.25
vt 4.75 -2.25
vt 1.625 -2.25
vt -1.5 -2.25
vt -1.5 -2.5
vt 1.625 -2.5
vt 1.625 2.03125
vt -1.5 2.03125
vt -1.5 4.75
vt 1.625 4.75
vt 5.5 -2.125
vt 4.5 -2.125
vt 4.5 -0.125
vt 5.5 -0.125
vt -1 -0
vt -1 -2
vt 1.625 -2
vt 2 4.5
vt -0.625 4.5
vt -0.625 5.5
vt 2 5.5
vt 2 -2.125
vt -0.625 -2.125
vt -0.625 -0.125
vt 2 -0.125
vt 3.5 -1.5
vt -0.75 -1.5
vt -0.75 0.5
vt 3.5 0.5
vt 2.6875 0.125
vt 2.25 0.125
vt 2.25 -1.875
vt 2.6875 -1.875
vt 2.6875 0.0625
vt 2.25 0.0625
vt 2.25 4.3125
vt 2.6875 4.3125
vt 4.3125 0.125
vt 0.0625 0.125
vt 0.0625 -1.875
vt 4.3125 -1.875
vt 2.25 -0.8125
vt 0.375 -0.8125
vt 0.375 -0.4375
vt 2.25 -0.4375
vt 1.8125 -0.1875
vt 1.03125 -0.1875
vt 1.03125 -0.5625
vt 1.8125 -0.5625
vt 2.53125 0.65625
vt 1.75 0.65625
vt 1.75 2.53125
vt 2.53125 2.53125
vt 1.8125 2.25
vt 1.03125 2.25
vt 1.03125 0.375
vt 1.8125 0.375
vt 1.8125 -0.5
vt 1.03125 -0.5
vt 1.03125 -0.125
vt 1.8125 -0.125
vt 2.25 -0.1875
vt 0.375 -0.1875
vt 0.375 -0.5625
vt 2.25 -0.5625
vt 0.75 -2
vt 0 -0.125
vt 0.75 -0.125
vt 1.75 -0.125
vt 0.875 -0.125
vt 0.875 -2
vt 1.75 -2
vt 1.75 -0
vt 0.875 -0
vt 0.875 0.75
vt 1.75 0.75
vt 2.625 -2
vt 2.625 -0.125
vt 2.25 -0.125
vt 1.875 -0.125
vt 1.875 -0
vt 2.25 -0
vt 2.125 -0
vt 1.375 -0
vt 1.375 -0.125
vt 2.125 -0.125
vt 2.125 1.875
vt 1.375 1.875
vt 1.375 2.25
vt 2.125 2.25
vt 4 -0.5
vt 2.28125 -0.5
vt 4 -0
vt 2 -0
vt -0.5 -0
vt -0.5 -0.5
vt 2 -0.5
vt 2.5 2.53125
vt 0 2.53125
vt 0 4.25
vt 2.5 4.25
vt 2.125 4
vt -0.375 4
vt -0.375 2.28125
vt 2.125 2.28125
vt 2.125 -0.5
vt -0.375 -0.5
vt 2.65625 -2.125
vt 2.4375 -2.125
vt 2.4375 -0.5
vt 2.65625 -0.5
vt 2.5 -0.5
vt 1.75 -0.5
vt 1.75 -2.125
vt 2.5 -2.125
vt 2.5 2.0625
vt 1.75 2.0625
vt 1.75 2.28125
vt 2.5 2.28125
vt 0.5 -0.5
vt 0 -0.5
vt 0.5 -0
vt 1 -0
vt -2 -0
vt -2 -0.5
vt 1 -0.5
vt -2 0.5
vt 1 0.5
vt 2.125 -2.125
vt 1.8750001 -1.875
vt 2.125 -1.875
vt 1.875 -0.25
vt 1.875 -1
vt 2.125 -1
vt 2.125 -0.25
vt 2 -0.25
vt 2 -1
vt 1.75 -1
vt 1.75 -0.25
vt -0.25 -2.125
vt -1 -2.125
vt -1 -1.875
vt -0.25 -1.875
vt 2.125 -2.25
vt 1.875 -2.25
vt 1.875 -2
vt 2.125 -2
vt 0.375 -2
vt -0.375 -2.25
vt 0.375 -2.25
vt 0.375 1.875
vt -0.375 1.875
vt -0.375 2.125
vt 0.375 2.125
vt 1.125 -1.125
vt 0.87499994 -0.875
vt 1.125 -0.875
vt 0.875 -0.25
vt 0.875 -1
vt 1.125 -1
vt 1.125 -0.25
vt 1 -0.25
vt 1 -1
vt 0.75 -1
vt 0.75 -0.25
vt -0.25 -1.125
vt -1 -1.125
vt -1 -0.875
vt -0.25 -0.875
vt 0.875 -0.87499994
vt 1.125 -0.87499994
vt 1.125 -0.125
vt 0.87499994 0.125
vt 1.125 0.125
vt -0.25 -0.125
vt -1 -0.125
vt -1 0.125
vt -0.25 0.125
vt 0.12500003 -0.125
vt -0.12499997 0.125
vt 0.12500003 0.125
vt 9 -8.5
vt 0.5 0.5
vt 9 -8
vt -2 9
vt 1 9
vt 1 -8.5
vt -2 -8.5
vt -2 -8
vt 1 -8
vt 0.12500001 -0.125
vt -0.124999985 0.12499999
vt 0.12500001 0.12499999
vt -0.125 -0.25
vt -0.125 -1
vt 0.125 -1
vt 0.125 -0.25
vt 0 -0.25
vt 0 -1
vt -0.25 -1
vt -0.25 -0.25
vt 1.875 -1.875
vt 0.875 -0.875
vt 0.12500003 -0.12500001
vt -0.12499997 0.124999985
vt 0.12500003 0.124999985

# normals
vn -1 0 -0
vn 0 0 1
vn 0 -1 -0
vn 0 1 -0
vn 0 0 -1
vn 1 0 -0
vn -0 -0.7071067811865475 0.7071067811865475
vn 0 -0.7071067811865476 0.7071067811865476
vn 0 0.7071067811865476 -0.7071067811865476

o entity0_brush0
usemtl retro/FLOOR_1A
f  1/1/1  2/2/1  3/3/1  4/4/1
usemtl retro/FLOOR_1A
f  5/3/2  3/5/2  2/6/2  6/2/2
usemtl retro/FLOOR_1A
f  6/7/3  2/8/3  1/9/3  7/10/3
usemtl retro/FLOOR_1A
f  8/11/4  4/12/4  3/13/4  5/14/4
usemtl retro/FLOOR_1A
f  7/2/5  1/6/5  4/5/5  8/3/5
usemtl retro/FLOOR_1A
f  8/15/6  5/16/6  6/17/6  7/18/6

o entity0_brush1
usemtl retro/FLOOR_1A
f  9/19/1  10/20/1  11/21/1  12/22/1
usemtl retro/FLOOR_1A
f  13/23/2  11/24/2  10/25/2  14/26/2
usemtl retro/FLOOR_1A
f  14/27/3  10/28/3  9/29/3  15/30/3
usemtl retro/FLOOR_1A
f  16/31/4  12/32/4  11/33/4  13/34/4
usemtl retro/FLOOR_1A
f  15/35/5  9/36/5  12/37/5  16/38/5
usemtl retro/FLOOR_1A
f  16/39/6  13/37/6  14/36/6  15/40/6

o entity0_brush2
usemtl retro/FLOOR_2A
f  17/41/1  18/42/1  19/43/1  20/44/1
usemtl retro/FLOOR_2A
f  21/45/2  19/46/2  18/47/2  22/48/2
usemtl retro/FLOOR_2A
f  22/49/3  18/50/3  17/51/3  23/52/3
usemtl retro/FLOOR_2A
f  24/52/4  20/51/4  19/50/4  21/49/4
usemtl retro/FLOOR_2A
f  23/48/5  17/47/5  20/46/5  24/45/5
usemtl retro/FLOOR_2A
f  24/44/6  21/43/6  22/42/6  23/41/6

o entity0_brush3
usemtl retro/FLOOR_1A
f  25/53/1  26/54/1  27/55/1  28/56/1
usemtl retro/FLOOR_1A
f  29/34/2  27/57/2  26/58/2  30/59/2
usemtl retro/FLOOR_1A
f  30/60/3  26/61/3  25/62/3  31/63/3
usemtl retro/FLOOR_1A
f  32/63/4  28/62/4  27/61/4  29/60/4
usemtl retro/FLOOR_1A
f  31/64/5  25/65/5  28/66/5  32/67/5
usemtl retro/FLOOR_1A
f  32/56/6  29/55/6  30/54/6  31/53/6

o entity0_brush4
usemtl retro/FLOOR_1A
f  33/68/1  34/69/1  35/70/1  36/71/1
usemtl retro/FLOOR_1A
f  37/72/2  35/73/2  34/74/2  38/75/2
usemtl retro/FLOOR_1A
f  38/76/3  34/77/3  33/78/3  39/79/3
usemtl retro/FLOOR_1A
f  40/79/4  36/78/4  35/77/4  37/76/4
usemtl retro/FLOOR_1A
f  39/75/5  33/74/5  36/73/5  40/72/5
usemtl retro/FLOOR_1A
f  40/80/6  37/81/6  38/82/6  39/83/6

o entity0_brush5
usemtl retro/FLOOR_1A
f  41/84/1  42/85/1  43/86/1  44/87/1
usemtl retro/FLOOR_1A
f  45/88/2  43/89/2  42/90/2  46/91/2
usemtl retro/FLOOR_1A
f  46/92/3  42/93/3  41/94/3  47/95/3
usemtl retro/FLOOR_1A
f  48/96/4  44/97/4  43/98/4  45/99/4
usemtl retro/FLOOR_1A
f  47/100/5  41/101/5  44/102/5  48/103/5
usemtl retro/FLOOR_1A
f  48/104/6  45/105/6  46/106/6  47/107/6

o entity0_brush6
usemtl retro/FLOOR_1A
f  49/108/1  50/20/1  51/109/1  52/110/1
usemtl retro/FLOOR_1A
f  53/111/2  51/112/2  50/113/2  54/114/2
usemtl retro/FLOOR_1A
f  54/115/3  50/116/3  49/117/3  55/118/3
usemtl retro/FLOOR_1A
f  56/118/4  52/117/4  51/116/4  53/115/4
usemtl retro/FLOOR_1A
f  55/119/5  49/114/5  52/111/5  56/120/5
usemtl retro/FLOOR_1A
f  56/110/6  53/109/6  54/20/6  55/108/6

o entity0_brush7
usemtl retro/FLOOR_1A
f  57/121/1  58/122/1  59/123/1  60/124/1
usemtl retro/FLOOR_1A
f  61/125/2  59/126/2  58/127/2  62/128/2
usemtl retro/FLOOR_1A
f  62/129/3  58/130/3  57/131/3  63/132/3
usemtl retro/FLOOR_1A
f  64/132/4  60/131/4  59/130/4  61/129/4
usemtl retro/FLOOR_1A
f  63/128/5  57/127/5  60/126/5  64/125/5
usemtl retro/FLOOR_1A
f  64/124/6  61/123/6  62/122/6  63/121/6

o entity0_brush8
usemtl retro/FLOOR_1A
f  65/133/1  66/134/1  67/22/1  68/135/1
usemtl retro/FLOOR_1A
f  69/136/2  67/137/2  66/138/2  70/139/2
usemtl retro/FLOOR_1A
f  70/140/3  66/141/3  65/142/3  71/143/3
usemtl retro/FLOOR_1A
f  72/144/4  68/145/4  67/146/4  69/147/4
usemtl retro/FLOOR_1A
f  71/148/5  65/149/5  68/3/5  72/125/5
usemtl retro/FLOOR_1A
f  72/135/6  69/22/6  70/134/6  71/133/6

o entity0_brush9
usemtl retro/FLOOR_1A
f  73/150/1  74/151/1  75/152/1  76/153/1
usemtl retro/FLOOR_1A
f  77/154/2  75/155/2  74/156/2  78/157/2
usemtl retro/FLOOR_1A
f  78/158/3  74/159/3  73/160/3  79/161/3
usemtl retro/FLOOR_1A
f  80/161/4  76/160/4  75/159/4  77/158/4
usemtl retro/FLOOR_1A
f  79/157/5  73/156/5  76/155/5  80/154/5
usemtl retro/FLOOR_1A
f  80/153/6  77/152/6  78/151/6  79/150/6

o entity1_brush0
usemtl flags/clip
f  81/162/1  82/163/1  83/21/1  84/164/1
usemtl flags/clip
f  85/165/2  83/166/2  82/167/2  86/168/2
usemtl flags/clip
f  86/165/3  82/166/3  81/169/3  87/170/3
usemtl flags/clip
f  88/170/4  84/169/4  83/166/4  85/165/4
usemtl flags/clip
f  87/168/5  81/167/5  84/166/5  88/165/5
usemtl flags/clip
f  88/164/6  85/21/6  86/163/6  87/162/6

o entity2_brush0
usemtl retro/RIVET_2B
f  89/171/1  90/172/1  91/173/1
usemtl retro/RIVET_2B
f  92/174/7  90/175/7  89/176/7  93/177/7
usemtl retro/RIVET_2B
f  94/178/4  91/179/4  90/180/4  92/181/4
usemtl retro/RIVET_2B
f  93/182/5  89/183/5  91/184/5  94/185/5
usemtl retro/RIVET_2B
f  92/172/6  93/171/6  94/173/6

o entity2_brush1
usemtl retro/RIVET_2B
f  95/186/1  96/187/1  97/188/1  98/189/1
usemtl retro/RIVET_2B
f  99/190/2  97/2/2  96/191/2  100/192/2
usemtl retro/RIVET_2B
f  100/193/3  96/194/3  95/195/3  101/196/3
usemtl retro/RIVET_2B
f  102/196/4  98/195/4  97/194/4  99/193/4
usemtl retro/RIVET_2B
f  101/192/5  95/191/5  98/2/5  102/190/5
usemtl retro/RIVET_2B
f  102/189/6  99/188/6  100/187/6  101/186/6

o entity2_brush2
usemtl retro/RIVET_2B
f  103/197/1  104/198/1  105/199/1
usemtl retro/RIVET_2B
f  106/200/7  104/201/7  103/202/7  107/203/7
usemtl retro/RIVET_2B
f  108/204/4  105/205/4  104/206/4  106/207/4
usemtl retro/RIVET_2B
f  107/208/5  103/209/5  105/210/5  108/211/5
usemtl retro/RIVET_2B
f  106/198/6  107/197/6  108/199/6

o entity2_brush3
usemtl retro/RIVET_2B
f  109/171/1  110/172/1  111/173/1
usemtl retro/RIVET_2B
f  112/174/7  110/175/7  109/176/7  113/177/7
usemtl retro/RIVET_2B
f  114/178/4  111/179/4  110/180/4  112/181/4
usemtl retro/RIVET_2B
f  113/182/5  109/183/5  111/184/5  114/185/5
usemtl retro/RIVET_2B
f  112/172/6  113/171/6  114/173/6

o entity2_brush4
usemtl retro/RIVET_2B
f  115/197/1  116/212/1  117/213/1
usemtl retro/RIVET_2B
f  118/200/7  116/201/7  115/202/7  119/203/7
usemtl retro/RIVET_2B
f  120/204/4  117/205/4  116/206/4  118/207/4
usemtl retro/RIVET_2B
f  119/208/5  115/209/5  117/210/5  120/211/5
usemtl retro/RIVET_2B
f  118/212/6  119/197/6  120/213/6

o entity2_brush5
usemtl retro/RIVET_2B
f  121/214/1  122/215/1  123/216/1
usemtl retro/RIVET_2B
f  124/200/7  122/201/7  121/202/7  125/203/7
usemtl retro/RIVET_2B
f  126/204/4  123/205/4  122/206/4  124/207/4
usemtl retro/RIVET_2B
f  125/217/5  121/218/5  123/219/5  126/220/5
usemtl retro/RIVET_2B
f  124/215/6  125/214/6  126/216/6

o entity2_brush6
usemtl retro/RIVET_2B
f  127/171/1  128/172/1  129/173/1
usemtl retro/RIVET_2B
f  130/174/7  128/175/7  127/176/7  131/177/7
usemtl retro/RIVET_2B
f  132/178/4  129/179/4  128/180/4  130/181/4
usemtl retro/RIVET_2B
f  131/182/5  127/183/5  129/184/5  132/185/5
usemtl retro/RIVET_2B
f  130/172/6  131/171/6  132/173/6

o entity2_brush7
usemtl retro/RIVET_2B
f  133/171/1  134/172/1  135/173/1
usemtl retro/RIVET_2B
f  136/174/7  134/175/7  133/176/7  137/177/7
usemtl retro/RIVET_2B
f  138/178/4  135/179/4  134/180/4  136/181/4
usemtl retro/RIVET_2B
f  137/182/5  133/183/5  135/184/5  138/185/5
usemtl retro/RIVET_2B
f  136/172/6  137/171/6  138/173/6

o entity2_brush8
usemtl retro/RIVET_2B
f  139/221/1  140/222/1  141/223/1
usemtl retro/RIVET_2B
f  142/200/7  140/201/7  139/202/7  143/203/7
usemtl retro/RIVET_2B
f  144/204/4  141/205/4  140/206/4  142/207/4
usemtl retro/RIVET_2B
f  143/217/5  139/218/5  141/219/5  144/220/5
usemtl retro/RIVET_2B
f  142/222/6  143/221/6  144/223/6

o entity2_brush9
usemtl flags/clip
f  145/224/1  146/164/1  147/225/1  148/226/1
usemtl flags/clip
f  149/170/2  147/169/2  146/166/2  150/165/2
usemtl flags/clip
f  150/170/8  146/169/8  145/227/8  151/228/8
usemtl flags/clip
f  152/228/9  148/227/9  147/169/9  149/170/9
usemtl flags/clip
f  151/229/5  145/230/5  148/231/5  152/232/5
usemtl flags/clip
f  151/224/6  152/226/6  149/225/6  150/164/6

o entity2_brush10
usemtl retro/RIVET_2B
f  153/197/1  154/198/1  155/199/1
usemtl retro/RIVET_2B
f  156/200/7  154/201/7  153/202/7  157/203/7
usemtl retro/RIVET_2B
f  158/204/4  155/205/4  154/206/4  156/207/4
usemtl retro/RIVET_2B
f  157/208/5  153/209/5  155/210/5  158/211/5
usemtl retro/RIVET_2B
f  156/198/6  157/197/6  158/199/6

o entity2_brush11
usemtl retro/RIVET_2B
f  159/233/1  160/234/1  161/235/1
usemtl retro/RIVET_2B
f  162/236/7  160/237/7  159/238/7  163/239/7
usemtl retro/RIVET_2B
f  164/240/4  161/241/4  160/242/4  162/243/4
usemtl retro/RIVET_2B
f  163/217/5  159/218/5  161/219/5  164/220/5
usemtl retro/RIVET_2B
f  162/234/6  163/233/6  164/235/6

o entity2_brush12
usemtl retro/RIVET_2B
f  165/171/1  166/244/1  167/173/1
usemtl retro/RIVET_2B
f  168/174/7  166/175/7  165/176/7  169/177/7
usemtl retro/RIVET_2B
f  170/178/4  167/179/4  166/180/4  168/181/4
usemtl retro/RIVET_2B
f  169/182/5  165/183/5  167/184/5  170/185/5
usemtl retro/RIVET_2B
f  168/244/6  169/171/6  170/173/6

o entity2_brush13
usemtl retro/RIVET_2B
f  171/197/1  172/245/1  173/199/1
usemtl retro/RIVET_2B
f  174/200/7  172/201/7  171/202/7  175/203/7
usemtl retro/RIVET_2B
f  176/204/4  173/205/4  172/206/4  174/207/4
usemtl retro/RIVET_2B
f  175/208/5  171/209/5  173/210/5  176/211/5
usemtl retro/RIVET_2B
f  174/245/6  175/197/6  176/199/6

o entity2_brush14
usemtl retro/RIVET_2B
f  177/197/1  178/212/1  179/213/1
usemtl retro/RIVET_2B
f  180/200/7  178/201/7  177/202/7  181/203/7
usemtl retro/RIVET_2B
f  182/178/4  179/179/4  178/180/4  180/181/4
usemtl retro/RIVET_2B
f  181/208/5  177/209/5  179/210/5  182/211/5
usemtl retro/RIVET_2B
f  180/212/6  181/197/6  182/213/6

o entity2_brush15
usemtl retro/RIVET_2B
f  183/171/1  184/172/1  185/173/1
usemtl retro/RIVET_2B
f  186/174/7  184/175/7  183/176/7  187/177/7
usemtl retro/RIVET_2B
f  188/178/4  185/179/4  184/180/4  186/181/4
usemtl retro/RIVET_2B
f  187/182/5  183/183/5  185/184/5  188/185/5
usemtl retro/RIVET_2B
f  186/172/6  187/171/6  188/173/6

o entity2_brush16
usemtl retro/RIVET_2B
f  189/214/1  190/215/1  191/216/1
usemtl retro/RIVET_2B
f  192/200/7  190/201/7  189/202/7  193/203/7
usemtl retro/RIVET_2B
f  194/204/4  191/205/4  190/206/4  192/207/4
usemtl retro/RIVET_2B
f  193/217/5  189/218/5  191/219/5  194/220/5
usemtl retro/RIVET_2B
f  192/215/6  193/214/6  194/216/6

o entity2_brush17
usemtl retro/RIVET_2B
f  195/246/1  196/247/1  197/248/1
usemtl retro/RIVET_2B
f  198/236/7  196/237/7  195/238/7  199/239/7
usemtl retro/RIVET_2B
f  200/204/4  197/205/4  196/206/4  198/207/4
usemtl retro/RIVET_2B
f  199/217/5  195/218/5  197/219/5  200/220/5
usemtl retro/RIVET_2B
f  198/247/6  199/246/6  200/248/6

