mtllib base_no_floor.mtl
# vertices
v -56 -128 -320
v -56 -128 132
v -56 0 132
v -56 0 -320
v -24 0 132
v -24 -128 132
v -24 -128 -320
v -24 0 -320
v -24 -128 -320
v -24 -128 -256
v -24 0 -256
v -24 0 -320
v 144 0 -256
v 144 -128 -256
v 144 -128 -320
v 144 0 -320
v 136 -128 -272
v 136 -128 132
v 136 0 132
v 136 0 -272
v 164 0 132
v 164 -128 132
v 164 -128 -272
v 164 0 -272
v -24 -128 -320
v -24 -128 -256
v -24 0 -256
v -24 0 -320
v 144 0 -256
v 144 -128 -256
v 144 -128 -320
v 144 0 -320
v -24 0 -322
v -24 0 -256
v -24 128 -256
v -24 128 -322
v 144 128 -256
v 144 0 -256
v 144 0 -322
v 144 128 -322
v -24 -8 -8
v -24 -8 -0
v -24 0 -0
v -24 0 -8
v 24 0 -0
v 24 -8 -0
v 24 -8 -8
v 24 0 -8
v -24 -120 -120
v -24 -104 -104
v -24 -104 -120
v 24 -104 -104
v 24 -120 -120
v 24 -104 -120
v -24 -144 -146
v -24 -144 -130
v -24 -128 -130
v -24 -128 -146
v 24 -128 -130
v 24 -144 -130
v 24 -144 -146
v 24 -128 -146
v -24 -40 -40
v -24 -24 -24
v -24 -24 -40
v 24 -24 -24
v 24 -40 -40
v 24 -24 -40
v -24 -104 -104
v -24 -88 -88
v -24 -88 -104
v 24 -88 -88
v 24 -104 -104
v 24 -88 -104
v -24 -80 -80
v -24 -64 -64
v -24 -64 -80
v 24 -64 -64
v 24 -80 -80
v 24 -64 -80
v -24 -56 -56
v -24 -40 -40
v -24 -40 -56
v 24 -40 -40
v 24 -56 -56
v 24 -40 -56
v -24 -96 -96
v -24 -80 -80
v -24 -80 -96
v 24 -80 -80
v 24 -96 -96
v 24 -80 -96
v -24 -128 -128
v -24 -112 -112
v -24 -112 -128
v 24 -112 -112
v 24 -128 -128
v 24 -112 -128
v -24 -32 -32
v -24 -16 -16
v -24 -16 -32
v 24 -16 -16
v 24 -32 -32
v 24 -16 -32
v -24 -144 -144
v -24 -8 -8
v -24 0 -8
v -24 -136 -144
v 24 0 -8
v 24 -8 -8
v 24 -144 -144
v 24 -136 -144
v -24 -64 -64
v -24 -48 -48
v -24 -48 -64
v 24 -48 -48
v 24 -64 -64
v 24 -48 -64
v -24 -16 -16
v -24 0 -0
v -24 0 -16
v 24 0 -0
v 24 -16 -16
v 24 0 -16
v -24 -136 -136
v -24 -120 -120
v -24 -120 -136
v 24 -120 -120
v 24 -136 -136
v 24 -120 -136
v -24 -72 -72
v -24 -56 -56
v -24 -56 -72
v 24 -56 -56
v 24 -72 -72
v 24 -56 -72
v -24 -88 -88
v -24 -72 -72
v -24 -72 -88
v 24 -72 -72
v 24 -88 -88
v 24 -72 -88
v -24 -112 -112
v -24 -96 -96
v -24 -96 -112
v 24 -96 -96
v 24 -112 -112
v 24 -96 -112
v -24 -48 -48
v -24 -32 -32
v -24 -32 -48
v 24 -32 -32
v 24 -48 -48
v 24 -32 -48
v -24 -24 -24
v -24 -8 -8
v -24 -8 -24
v 24 -8 -8
v 24 -24 -24
v 24 -8 -24

# texture coordinates
vt 4.625 -2
vt -2.4375 -2
vt -2.4375 -0
vt 4.625 -0
vt -0.375 -0
vt -0.875 -0
vt -0.875 -2
vt -0.375 -2
vt -0.375 -2.4375
vt -0.875 -2.4375
vt -0.875 4.625
vt -0.375 4.625
vt 0.125 6
vt -0.375 6
vt -0.375 -1.0625
vt 0.125 -1.0625
vt 4.75 -0
vt -2.3125 -0
vt -2.3125 -2
vt 4.75 -2
vt 5.5 -2.125
vt 4.5 -2.125
vt 4.5 -0.125
vt 5.5 -0.125
vt 1.625 -0
vt -1 -0
vt -1 -2
vt 1.625 -2
vt 2 4.5
vt -0.625 4.5
vt -0.625 5.5
vt 2 5.5
vt 2 -2.125
vt -0.625 -2.125
vt -0.625 -0.125
vt 2 -0.125
vt 3.5 -1.5
vt -2.8125 -1.5
vt -2.8125 0.5
vt 3.5 0.5
vt 2.6875 0.125
vt 2.25 0.125
vt 2.25 -1.875
vt 2.6875 -1.875
vt 2.6875 -2
vt 2.25 -2
vt 2.25 4.3125
vt 2.6875 4.3125
vt 4.3125 0.125
vt -2 0.125
vt -2 -1.875
vt 4.3125 -1.875
vt 4.46875 -0.125
vt 4.46875 1.875
vt 5.5 1.875
vt 1.625 2
vt -1 2
vt 2 4.46875
vt -0.625 4.46875
vt -0.625 1.875
vt 2 1.875
vt 0.5 -0.5
vt 0 -0.5
vt 0 -0
vt 0.5 -0
vt 1 -0
vt -2 -0
vt -2 -0.5
vt 1 -0.5
vt -2 0.5
vt 1 0.5
vt 2.125 -2.125
vt 1.8750001 -1.875
vt 2.125 -1.875
vt 1.875 -0.25
vt 1.875 -1
vt 2.125 -1
vt 2.125 -0.25
vt 2 -0.25
vt 2 -1
vt 1.75 -1
vt 1.75 -0.25
vt -0.25 -2.125
vt -1 -2.125
vt -1 -1.875
vt -0.25 -1.875
vt 2.125 -2.25
vt 1.875 -2.25
vt 1.875 -2
vt 2.125 -2
vt 0.375 -2
vt -0.375 -2.25
vt 0.375 -2.25
vt 0.375 1.875
vt -0.375 1.875
vt -0.375 2.125
vt 0.375 2.125
vt 1.125 -1.125
vt 0.87499994 -0.875
vt 1.125 -0.875
vt 0.875 -0.25
vt 0.875 -1
vt 1.125 -1
vt 1.125 -0.25
vt 1 -0.25
vt 1 -1
vt 0.75 -1
vt 0.75 -0.25
vt -0.25 -1.125
vt -1 -1.125
vt -1 -0.875
vt -0.25 -0.875
vt 0.875 -0.87499994
vt 1.125 -0.87499994
vt 1.125 -0.125
vt 0.87499994 0.125
vt 1.125 0.125
vt -0.25 -0.125
vt -1 -0.125
vt -1 0.125
vt -0.25 0.125
vt 0.12500003 -0.125
vt -0.12499997 0.125
vt 0.12500003 0.125
vt 9 -8.5
vt 0.5 0.5
vt 9 -8
vt -2 9
vt 1 9
vt 1 -8.5
vt -2 -8.5
vt -2 -8
vt 1 -8
vt 0.12500001 -0.125
vt -0.124999985 0.12499999
vt 0.12500001 0.12499999
vt -0.125 -0.25
vt -0.125 -1
vt 0.125 -1
vt 0.125 -0.25
vt 0 -0.25
vt 0 -1
vt -0.25 -1
vt -0.25 -0.25
vt 1.875 -1.875
vt 0.875 -0.875
vt 0.12500003 -0.12500001
vt -0.12499997 0.124999985
vt 0.12500003 0.124999985

# normals
vn -1 0 -0
vn 0 0 1
vn 0 -1 -0
vn 0 1 -0
vn 0 0 -1
vn 1 0 -0
vn -0 -0.7071067811865475 0.7071067811865475
vn 0 -0.7071067811865476 0.7071067811865476
vn 0 0.7071067811865476 -0.7071067811865476

o entity0_brush0
usemtl retro/FLOOR_1A
f  1/1/1  2/2/1  3/3/1  4/4/1
usemtl retro/FLOOR_1A
f  5/5/2  3/6/2  2/7/2  6/8/2
usemtl retro/FLOOR_1A
f  6/9/3  2/10/3  1/11/3  7/12/3
usemtl retro/FLOOR_1A
f  8/13/4  4/14/4  3/15/4  5/16/4
usemtl retro/FLOOR_1A
f  7/8/5  1/7/5  4/6/5  8/5/5
usemtl retro/FLOOR_1A
f  8/17/6  5/18/6  6/19/6  7/20/6

o entity0_brush1
usemtl retro/FLOOR_1A
f  9/21/1  10/22/1  11/23/1  12/24/1
usemtl retro/FLOOR_1A
f  13/25/2  11/26/2  10/27/2  14/28/2
usemtl retro/FLOOR_1A
f  14/29/3  10/30/3  9/31/3  15/32/3
usemtl retro/FLOOR_1A
f  16/32/4  12/31/4  11/30/4  13/29/4
usemtl retro/FLOOR_1A
f  15/33/5  9/34/5  12/35/5  16/36/5
usemtl retro/FLOOR_1A
f  16/24/6  13/23/6  14/22/6  15/21/6

o entity0_brush2
usemtl retro/FLOOR_1A
f  17/37/1  18/38/1  19/39/1  20/40/1
usemtl retro/FLOOR_1A
f  21/41/2  19/42/2  18/43/2  22/44/2
usemtl retro/FLOOR_1A
f  22/45/3  18/46/3  17/47/3  23/48/3
usemtl retro/FLOOR_1A
f  24/48/4  20/47/4  19/46/4  21/45/4
usemtl retro/FLOOR_1A
f  23/44/5  17/43/5  20/42/5  24/41/5
usemtl retro/FLOOR_1A
f  24/49/6  21/50/6  22/51/6  23/52/6

o entity0_brush3
usemtl retro/FLOOR_1A
f  25/21/1  26/22/1  27/23/1  28/24/1
usemtl retro/FLOOR_1A
f  29/25/2  27/26/2  26/27/2  30/28/2
usemtl retro/FLOOR_1A
f  30/29/3  26/30/3  25/31/3  31/32/3
usemtl retro/FLOOR_1A
f  32/32/4  28/31/4  27/30/4  29/29/4
usemtl retro/FLOOR_1A
f  31/33/5  25/34/5  28/35/5  32/36/5
usemtl retro/FLOOR_1A
f  32/24/6  29/23/6  30/22/6  31/21/6

o entity0_brush4
usemtl retro/FLOOR_1A
f  33/24/1  34/53/1  35/54/1  36/55/1
usemtl retro/FLOOR_1A
f  37/56/2  35/57/2  34/26/2  38/25/2
usemtl retro/FLOOR_1A
f  38/58/3  34/59/3  33/31/3  39/32/3
usemtl retro/FLOOR_1A
f  40/32/4  36/31/4  35/59/4  37/58/4
usemtl retro/FLOOR_1A
f  39/36/5  33/35/5  36/60/5  40/61/5
usemtl retro/FLOOR_1A
f  40/55/6  37/54/6  38/53/6  39/24/6

o entity1_brush0
usemtl flags/clip
f  41/62/1  42/63/1  43/64/1  44/65/1
usemtl flags/clip
f  45/66/2  43/67/2  42/68/2  46/69/2
usemtl flags/clip
f  46/66/3  42/67/3  41/70/3  47/71/3
usemtl flags/clip
f  48/71/4  44/70/4  43/67/4  45/66/4
usemtl flags/clip
f  47/69/5  41/68/5  44/67/5  48/66/5
usemtl flags/clip
f  48/65/6  45/64/6  46/63/6  47/62/6

o entity2_brush0
usemtl retro/RIVET_2B
f  49/72/1  50/73/1  51/74/1
usemtl retro/RIVET_2B
f  52/75/7  50/76/7  49/77/7  53/78/7
usemtl retro/RIVET_2B
f  54/79/4  51/80/4  50/81/4  52/82/4
usemtl retro/RIVET_2B
f  53/83/5  49/84/5  51/85/5  54/86/5
usemtl retro/RIVET_2B
f  52/73/6  53/72/6  54/74/6

o entity2_brush1
usemtl retro/RIVET_2B
f  55/87/1  56/88/1  57/89/1  58/90/1
usemtl retro/RIVET_2B
f  59/91/2  57/8/2  56/92/2  60/93/2
usemtl retro/RIVET_2B
f  60/94/3  56/95/3  55/96/3  61/97/3
usemtl retro/RIVET_2B
f  62/97/4  58/96/4  57/95/4  59/94/4
usemtl retro/RIVET_2B
f  61/93/5  55/92/5  58/8/5  62/91/5
usemtl retro/RIVET_2B
f  62/90/6  59/89/6  60/88/6  61/87/6

o entity2_brush2
usemtl retro/RIVET_2B
f  63/98/1  64/99/1  65/100/1
usemtl retro/RIVET_2B
f  66/101/7  64/102/7  63/103/7  67/104/7
usemtl retro/RIVET_2B
f  68/105/4  65/106/4  64/107/4  66/108/4
usemtl retro/RIVET_2B
f  67/109/5  63/110/5  65/111/5  68/112/5
usemtl retro/RIVET_2B
f  66/99/6  67/98/6  68/100/6

o entity2_brush3
usemtl retro/RIVET_2B
f  69/72/1  70/73/1  71/74/1
usemtl retro/RIVET_2B
f  72/75/7  70/76/7  69/77/7  73/78/7
usemtl retro/RIVET_2B
f  74/79/4  71/80/4  70/81/4  72/82/4
usemtl retro/RIVET_2B
f  73/83/5  69/84/5  71/85/5  74/86/5
usemtl retro/RIVET_2B
f  72/73/6  73/72/6  74/74/6

o entity2_brush4
usemtl retro/RIVET_2B
f  75/98/1  76/113/1  77/114/1
usemtl retro/RIVET_2B
f  78/101/7  76/102/7  75/103/7  79/104/7
usemtl retro/RIVET_2B
f  80/105/4  77/106/4  76/107/4  78/108/4
usemtl retro/RIVET_2B
f  79/109/5  75/110/5  77/111/5  80/112/5
usemtl retro/RIVET_2B
f  78/113/6  79/98/6  80/114/6

o entity2_brush5
usemtl retro/RIVET_2B
f  81/115/1  82/116/1  83/117/1
usemtl retro/RIVET_2B
f  84/101/7  82/102/7  81/103/7  85/104/7
usemtl retro/RIVET_2B
f  86/105/4  83/106/4  82/107/4  84/108/4
usemtl retro/RIVET_2B
f  85/118/5  81/119/5  83/120/5  86/121/5
usemtl retro/RIVET_2B
f  84/116/6  85/115/6  86/117/6

o entity2_brush6
usemtl retro/RIVET_2B
f  87/72/1  88/73/1  89/74/1
usemtl retro/RIVET_2B
f  90/75/7  88/76/7  87/77/7  91/78/7
usemtl retro/RIVET_2B
f  92/79/4  89/80/4  88/81/4  90/82/4
usemtl retro/RIVET_2B
f  91/83/5  87/84/5  89/85/5  92/86/5
usemtl retro/RIVET_2B
f  90/73/6  91/72/6  92/74/6

o entity2_brush7
usemtl retro/RIVET_2B
f  93/72/1  94/73/1  95/74/1
usemtl retro/RIVET_2B
f  96/75/7  94/76/7  93/77/7  97/78/7
usemtl retro/RIVET_2B
f  98/79/4  95/80/4  94/81/4  96/82/4
usemtl retro/RIVET_2B
f  97/83/5  93/84/5  95/85/5  98/86/5
usemtl retro/RIVET_2B
f  96/73/6  97/72/6  98/74/6

o entity2_brush8
usemtl retro/RIVET_2B
f  99/122/1  100/123/1  101/124/1
usemtl retro/RIVET_2B
f  102/101/7  100/102/7  99/103/7  103/104/7
usemtl retro/RIVET_2B
f  104/105/4  101/106/4  100/107/4  102/108/4
usemtl retro/RIVET_2B
f  103/118/5  99/119/5  101/120/5  104/121/5
usemtl retro/RIVET_2B
f  102/123/6  103/122/6  104/124/6

o entity2_brush9
usemtl flags/clip
f  105/125/1  106/65/1  107/126/1  108/127/1
usemtl flags/clip
f  109/71/2  107/70/2  106/67/2  110/66/2
usemtl flags/clip
f  110/71/8  106/70/8  105/128/8  111/129/8
usemtl flags/clip
f  112/129/9  108/128/9  107/70/9  109/71/9
usemtl flags/clip
f  111/130/5  105/131/5  108/132/5  112/133/5
usemtl flags/clip
f  111/125/6  112/127/6  109/126/6  110/65/6

o entity2_brush10
usemtl retro/RIVET_2B
f  113/98/1  114/99/1  115/100/1
usemtl retro/RIVET_2B
f  116/101/7  114/102/7  113/103/7  117/104/7
usemtl retro/RIVET_2B
f  118/105/4  115/106/4  114/107/4  116/108/4
usemtl retro/RIVET_2B
f  117/109/5  113/110/5  115/111/5  118/112/5
usemtl retro/RIVET_2B
f  116/99/6  117/98/6  118/100/6

o entity2_brush11
usemtl retro/RIVET_2B
f  119/134/1  120/135/1  121/136/1
usemtl retro/RIVET_2B
f  122/137/7  120/138/7  119/139/7  123/140/7
usemtl retro/RIVET_2B
f  124/141/4  121/142/4  120/143/4  122/144/4
usemtl retro/RIVET_2B
f  123/118/5  119/119/5  121/120/5  124/121/5
usemtl retro/RIVET_2B
f  122/135/6  123/134/6  124/136/6

o entity2_brush12
usemtl retro/RIVET_2B
f  125/72/1  126/145/1  127/74/1
usemtl retro/RIVET_2B
f  128/75/7  126/76/7  125/77/7  129/78/7
usemtl retro/RIVET_2B
f  130/79/4  127/80/4  126/81/4  128/82/4
usemtl retro/RIVET_2B
f  129/83/5  125/84/5  127/85/5  130/86/5
usemtl retro/RIVET_2B
f  128/145/6  129/72/6  130/74/6

o entity2_brush13
usemtl retro/RIVET_2B
f  131/98/1  132/146/1  133/100/1
usemtl retro/RIVET_2B
f  134/101/7  132/102/7  131/103/7  135/104/7
usemtl retro/RIVET_2B
f  136/105/4  133/106/4  132/107/4  134/108/4
usemtl retro/RIVET_2B
f  135/109/5  131/110/5  133/111/5  136/112/5
usemtl retro/RIVET_2B
f  134/146/6  135/98/6  136/100/6

o entity2_brush14
usemtl retro/RIVET_2B
f  137/98/1  138/113/1  139/114/1
usemtl retro/RIVET_2B
f  140/101/7  138/102/7  137/103/7  141/104/7
usemtl retro/RIVET_2B
f  142/79/4  139/80/4  138/81/4  140/82/4
usemtl retro/RIVET_2B
f  141/109/5  137/110/5  139/111/5  142/112/5
usemtl retro/RIVET_2B
f  140/113/6  141/98/6  142/114/6

o entity2_brush15
usemtl retro/RIVET_2B
f  143/72/1  144/73/1  145/74/1
usemtl retro/RIVET_2B
f  146/75/7  144/76/7  143/77/7  147/78/7
usemtl retro/RIVET_2B
f  148/79/4  145/80/4  144/81/4  146/82/4
usemtl retro/RIVET_2B
f  147/83/5  143/84/5  145/85/5  148/86/5
usemtl retro/RIVET_2B
f  146/73/6  147/72/6  148/74/6

o entity2_brush16
usemtl retro/RIVET_2B
f  149/115/1  150/116/1  151/117/1
usemtl retro/RIVET_2B
f  152/101/7  150/102/7  149/103/7  153/104/7
usemtl retro/RIVET_2B
f  154/105/4  151/106/4  150/107/4  152/108/4
usemtl retro/RIVET_2B
f  153/118/5  149/119/5  151/120/5  154/121/5
usemtl retro/RIVET_2B
f  152/116/6  153/115/6  154/117/6

o entity2_brush17
usemtl retro/RIVET_2B
f  155/147/1  156/148/1  157/149/1
usemtl retro/RIVET_2B
f  158/137/7  156/138/7  155/139/7  159/140/7
usemtl retro/RIVET_2B
f  160/105/4  157/106/4  156/107/4  158/108/4
usemtl retro/RIVET_2B
f  159/118/5  155/119/5  157/120/5  160/121/5
usemtl retro/RIVET_2B
f  158/148/6  159/147/6  160/149/6

