mtllib start_floor.mtl
# vertices
v -48 0 128
v -48 0 144
v -48 96 144
v -48 96 128
v 48 96 144
v 48 0 144
v 48 0 128
v 48 96 128
v -80 0 128
v -80 0 144
v -80 96 144
v -80 96 128
v -48 96 144
v -48 0 144
v -48 0 128
v -48 96 128
v 48 0 128
v 48 0 144
v 48 96 144
v 48 96 128
v 80 96 144
v 80 0 144
v 80 0 128
v 80 96 128
v -80 96 128
v -80 96 144
v -80 160 144
v -80 160 128
v 80 160 144
v 80 96 144
v 80 96 128
v 80 160 128
v -96 160 -296
v -96 160 144
v -96 176 144
v -96 176 -296
v 88 176 144
v 88 160 144
v 88 160 -296
v 88 176 -296
v -96 -160 -296
v -96 -160 144
v -96 160 144
v -96 160 -296
v -80 160 144
v -80 -160 144
v -80 -160 -296
v -80 160 -296
v -32 -32 -320
v -32 -32 -0
v -32 168 -0
v -32 168 -320
v 104 168 -0
v 104 -32 -0
v 104 -32 -320
v 104 168 -320
v -32 -128 -178
v -32 -128 -0
v -32 -24 -0
v -32 -24 -178
v 32 -24 -0
v 32 -128 -0
v 32 -128 -178
v 32 -24 -178
v -96 -128 -368
v -96 -128 -288
v -96 176 -288
v -96 176 -368
v 104 176 -288
v 104 -128 -288
v 104 -128 -368
v 104 176 -368
v -80 96 -296
v -80 96 -0
v -80 160 -0
v -80 160 -296
v -32 160 -0
v -32 96 -0
v -32 96 -296
v -32 160 -296
v 80 0 -0
v 80 0 144
v 80 160 144
v 80 160 -0
v 88 160 144
v 88 0 144
v 88 0 -0
v 88 160 -0
v 80 -128 -312
v 80 -128 -8
v 80 -24 -8
v 80 -24 -312
v 104 -24 -8
v 104 -128 -8
v 104 -128 -312
v 104 -24 -312
v -96 -128 -32
v -96 -128 144
v -96 0 144
v -96 0 -32
v 104 0 144
v 104 -128 144
v 104 -128 -32
v 104 0 -32
v -96 -160 -368
v -96 -160 -178
v -96 -128 -178
v -96 -128 -368
v 104 -128 -178
v 104 -160 -178
v 104 -160 -368
v 104 -128 -368
v -80 -8 -40
v -80 -8 -32
v -80 0 -32
v -80 0 -40
v -32 0 -32
v -32 -8 -32
v -32 -8 -40
v -32 0 -40
v -80 -120 -152
v -80 -104 -136
v -80 -104 -152
v -32 -104 -136
v -32 -120 -152
v -32 -104 -152
v -80 -144 -178
v -80 -144 -162
v -80 -128 -162
v -80 -128 -178
v -32 -128 -162
v -32 -144 -162
v -32 -144 -178
v -32 -128 -178
v -80 -40 -72
v -80 -24 -56
v -80 -24 -72
v -32 -24 -56
v -32 -40 -72
v -32 -24 -72
v -80 -104 -136
v -80 -88 -120
v -80 -88 -136
v -32 -88 -120
v -32 -104 -136
v -32 -88 -136
v -80 -80 -112
v -80 -64 -96
v -80 -64 -112
v -32 -64 -96
v -32 -80 -112
v -32 -64 -112
v -80 -56 -88
v -80 -40 -72
v -80 -40 -88
v -32 -40 -72
v -32 -56 -88
v -32 -40 -88
v -80 -96 -128
v -80 -80 -112
v -80 -80 -128
v -32 -80 -112
v -32 -96 -128
v -32 -80 -128
v -80 -128 -160
v -80 -112 -144
v -80 -112 -160
v -32 -112 -144
v -32 -128 -160
v -32 -112 -160
v -80 -32 -64
v -80 -16 -48
v -80 -16 -64
v -32 -16 -48
v -32 -32 -64
v -32 -16 -64
v -80 -144 -176
v -80 -8 -40
v -80 0 -40
v -80 -136 -176
v -32 0 -40
v -32 -8 -40
v -32 -144 -176
v -32 -136 -176
v -80 -64 -96
v -80 -48 -80
v -80 -48 -96
v -32 -48 -80
v -32 -64 -96
v -32 -48 -96
v -80 -16 -48
v -80 0 -32
v -80 0 -48
v -32 0 -32
v -32 -16 -48
v -32 0 -48
v -80 -136 -168
v -80 -120 -152
v -80 -120 -168
v -32 -120 -152
v -32 -136 -168
v -32 -120 -168
v -80 -72 -104
v -80 -56 -88
v -80 -56 -104
v -32 -56 -88
v -32 -72 -104
v -32 -56 -104
v -80 -88 -120
v -80 -72 -104
v -80 -72 -120
v -32 -72 -104
v -32 -88 -120
v -32 -72 -120
v -80 -112 -144
v -80 -96 -128
v -80 -96 -144
v -32 -96 -128
v -32 -112 -144
v -32 -96 -144
v -80 -48 -80
v -80 -32 -64
v -80 -32 -80
v -32 -32 -64
v -32 -48 -80
v -32 -32 -80
v -80 -24 -56
v -80 -8 -40
v -80 -8 -56
v -32 -8 -40
v -32 -24 -56
v -32 -8 -56

# texture coordinates
vt -0.8333334 -0
vt -1 -0
vt -1 1
vt -0.8333334 1
vt 1 1
vt 0 1
vt 0 -0
vt 1 -0
vt 1 -1.5
vt 0 -1.5
vt 0 -1.3333334
vt 1 -1.3333334
vt -2.25 -0
vt -2.5 -0
vt -2.5 1.5
vt -2.25 1.5
vt -1 1.5
vt -1.5 1.5
vt -1.5 -0
vt -1 -2.25
vt -1.5 -2.25
vt -1.5 -2
vt -1 -2
vt -1.75 -0
vt -2 -0
vt -2 1.5
vt -1.75 1.5
vt 1.5 1.5
vt 1 1.5
vt 1.5 -0
vt 1.5 -2.25
vt 1 -2.25
vt 1 -2
vt 1.5 -2
vt -2.5 2.5
vt -2.25 2.5
vt 1 2.5
vt -1.5 2.5
vt 4.625 2.5
vt -2.25 2.75
vt 4.625 2.75
vt 1.375 2.75
vt -1.5 2.75
vt 1.375 2.5
vt 1.375 -2.25
vt -1.5 4.625
vt 1.375 4.625
vt 4.625 -2.5
vt -2.25 -2.5
vt -0.5 2.5
vt -0.75 2.5
vt -0.75 -2.5
vt -0.5 -2.5
vt -0.5 -2.25
vt -0.75 -2.25
vt -0.75 4.625
vt -0.5 4.625
vt 4.5 -0.5
vt -0.5 -0.5
vt -0.5 2.625
vt 4.5 2.625
vt 2.375 2.625
vt 0.25 2.625
vt 0.25 -0.5
vt 2.375 -0.5
vt 1.375 -0.5
vt -0.75 -0.5
vt -0.75 4.5
vt 1.375 4.5
vt 1.625 4.5
vt -0.5 4.5
vt 1.625 -0.5
vt 1.625 -0.625
vt -0.5 -0.625
vt 1.625 2.5
vt 4.5 2.5
vt 4.5 -0.625
vt 2.78125 -2.5
vt 0 -2.5
vt 0 -0.875
vt 2.78125 -0.875
vt 0.5 -0.34375
vt -0.5 -0.34375
vt -0.5 -1.96875
vt 0.5 -1.96875
vt 0.5 -0.25
vt -0.5 -0.25
vt -0.5 2.53125
vt 0.5 2.53125
vt 0.75 -2
vt -0.25 -2
vt -0.25 -0.375
vt 0.75 -0.375
vt 2.53125 -0.34375
vt -0.25 -0.34375
vt -0.25 -1.96875
vt 2.53125 -1.96875
vt 5.5 -1.875
vt 4.25 -1.875
vt 4.25 2.875
vt 5.5 2.875
vt 0.875 2.75
vt -2.25 -2
vt 0.875 -2
vt 1.5 4.25
vt -1.625 4.25
vt -1.625 5.5
vt 1.5 5.5
vt 1.5 -1.875
vt -1.625 -1.875
vt -1.625 2.875
vt 1.5 2.875
vt 4.5 1
vt -0.125 1
vt -0.125 2
vt 4.5 2
vt -0.25 2.5
vt -1 2.5
vt -0.25 1.5
vt -0.25 -0
vt -1 4.625
vt -0.25 4.625
vt -0.625 4.5
vt -1.375 4.5
vt -1.375 -0.125
vt -0.625 -0.125
vt -0.625 1
vt -1.375 1
vt -1.375 2
vt -0.625 2
vt 0 2.5
vt 1.25 2.5
vt 1.25 -0
vt 1.375 -0
vt 1.375 -2.625
vt 1.25 -2.625
vt 1.25 -0.375
vt 1.375 -0.375
vt -0.375 2.5
vt -2.625 2.5
vt -2.625 -0
vt -0.375 -0
vt 5.84375 -1.5
vt 1.09375 -1.5
vt 1.09375 0.125
vt 5.84375 0.125
vt 1.6875 -0
vt 1.3125 -0
vt 1.3125 -1.625
vt 1.6875 -1.625
vt 1.6875 1
vt 1.3125 1
vt 1.3125 5.75
vt 1.6875 5.75
vt 5.75 -0
vt 1 -1.625
vt 5.75 -1.625
vt 1 -2.5
vt -1.75 -2.5
vt -1.75 -0.5
vt 1 -0.5
vt -1.5 -0.5
vt -1.5 -2.5
vt 1.625 -2.5
vt 1.625 -1.75
vt -1.5 -1.75
vt -1.5 1
vt 1.625 1
vt 1.875 1
vt -1.25 1
vt -1.25 -1.75
vt 1.875 -1.75
vt 1.875 -2.5
vt -1.25 -2.5
vt -1.25 -0.5
vt 1.875 -0.5
vt 5 -2.75
vt 2.03125 -2.75
vt 2.03125 -2.25
vt 5 -2.25
vt 1.625 -2.25
vt -1.5 -2.75
vt 1.625 -2.75
vt 1.625 2.03125
vt -1.5 2.03125
vt -1.5 5
vt 1.625 5
vt 2.5 -0.5
vt 2 -0.5
vt 2 -0
vt 2.5 -0
vt -5 -0
vt -5 -0.5
vt -2 -0.5
vt -2 2
vt -5 2
vt -5 2.5
vt -2 2.5
vt 2.125 -2.125
vt 1.875 -1.875
vt 2.125 -1.875
vt 1.875 -1.25
vt 1.875 -2
vt 2.125 -2
vt 2.125 -1.25
vt 2 -1.25
vt 2 -2
vt 1.75 -2
vt 1.75 -1.25
vt -1.25 -2.125
vt -2 -2.125
vt -2 -1.875
vt -1.25 -1.875
vt 2.125 -2.25
vt 1.875 -2.25
vt -0.625 -2
vt -1.375 -2
vt -1.375 -2.25
vt -0.625 -2.25
vt -0.625 1.875
vt -1.375 1.875
vt -1.375 2.125
vt -0.625 2.125
vt 1.125 -1.125
vt 0.875 -0.875
vt 1.125 -0.875
vt 0.875 -1.25
vt 1.125 -2
vt 1.125 -1.25
vt 1 -1.25
vt 0.75 -1.25
vt -1.25 -1.125
vt -2 -1.125
vt -2 -0.875
vt -1.25 -0.875
vt 0.875 -0.87499994
vt 1.125 -0.87499994
vt 1.125 -0.125
vt 0.875 0.125
vt 1.125 0.125
vt -1.25 -0.125
vt -2 -0.125
vt -2 0.125
vt -1.25 0.125
vt 1.8750001 -1.875
vt 0.125 -0.125
vt -0.125 0.125
vt 0.125 0.125
vt 11 -8.5
vt 2.5 0.5
vt 11 -8
vt -2 0.5
vt -5 0.5
vt -5 11
vt -2 11
vt -2 -8.5
vt -5 -8.5
vt -5 -8
vt -2 -8
vt -0.125 0.12499999
vt 0.125 0.12499999
vt -0.125 -1.25
vt -0.125 -2
vt 0.125 -2
vt 0.125 -1.25
vt 0 -1.25
vt 0 -2
vt -0.25 -1.25
vt 0.125 -0.12500001
vt -0.125 0.124999985
vt 0.125 0.124999985

# normals
vn -1 0 -0
vn 0 0 1
vn 0 -1 -0
vn 0 1 -0
vn 0 0 -1
vn 1 0 -0
vn -0 -0.7071067811865475 0.7071067811865475
vn 0 -0.7071067811865476 0.7071067811865476
vn 0 0.7071067811865476 -0.7071067811865476

o entity0_brush0
usemtl retro/DOOR_2F
f  1/1/1  2/2/1  3/3/1  4/4/1
usemtl retro/DOOR_2F
f  5/5/2  3/6/2  2/7/2  6/8/2
usemtl retro/DOOR_2F
f  6/9/3  2/10/3  1/11/3  7/12/3
usemtl retro/DOOR_2F
f  8/12/4  4/11/4  3/10/4  5/9/4
usemtl retro/DOOR_2F
f  7/8/5  1/7/5  4/6/5  8/5/5
usemtl retro/DOOR_2F
f  8/4/6  5/3/6  6/2/6  7/1/6

o entity0_brush1
usemtl retro/FLOOR_1A
f  9/13/1  10/14/1  11/15/1  12/16/1
usemtl retro/FLOOR_1A
f  13/17/2  11/18/2  10/19/2  14/2/2
usemtl retro/FLOOR_1A
f  14/20/3  10/21/3  9/22/3  15/23/3
usemtl retro/FLOOR_1A
f  16/23/4  12/22/4  11/21/4  13/20/4
usemtl retro/FLOOR_1A
f  15/2/5  9/19/5  12/18/5  16/17/5
usemtl retro/FLOOR_1A
f  16/16/6  13/15/6  14/14/6  15/13/6

o entity0_brush2
usemtl retro/FLOOR_1A
f  17/24/1  18/25/1  19/26/1  20/27/1
usemtl retro/FLOOR_1A
f  21/28/2  19/29/2  18/8/2  22/30/2
usemtl retro/FLOOR_1A
f  22/31/3  18/32/3  17/33/3  23/34/3
usemtl retro/FLOOR_1A
f  24/34/4  20/33/4  19/32/4  21/31/4
usemtl retro/FLOOR_1A
f  23/30/5  17/8/5  20/29/5  24/28/5
usemtl retro/FLOOR_1A
f  24/27/6  21/26/6  22/25/6  23/24/6

o entity0_brush3
usemtl retro/FLOOR_1A
f  25/16/1  26/15/1  27/35/1  28/36/1
usemtl retro/FLOOR_1A
f  29/37/2  27/38/2  26/18/2  30/29/2
usemtl retro/FLOOR_1A
f  30/32/3  26/21/3  25/22/3  31/33/3
usemtl retro/FLOOR_1A
f  32/33/4  28/22/4  27/21/4  29/32/4
usemtl retro/FLOOR_1A
f  31/29/5  25/18/5  28/38/5  32/37/5
usemtl retro/FLOOR_1A
f  32/36/6  29/35/6  30/15/6  31/16/6

o entity0_brush4
usemtl retro/FLOOR_2A
f  33/39/1  34/36/1  35/40/1  36/41/1
usemtl retro/FLOOR_2A
f  37/42/2  35/43/2  34/38/2  38/44/2
usemtl retro/FLOOR_2A
f  38/45/3  34/21/3  33/46/3  39/47/3
usemtl retro/FLOOR_2A
f  40/47/4  36/46/4  35/21/4  37/45/4
usemtl retro/FLOOR_2A
f  39/44/5  33/38/5  36/43/5  40/42/5
usemtl retro/FLOOR_2A
f  40/41/6  37/40/6  38/36/6  39/39/6

o entity0_brush5
usemtl retro/FLOOR_1A
f  41/48/1  42/49/1  43/36/1  44/39/1
usemtl retro/FLOOR_1A
f  45/50/2  43/51/2  42/52/2  46/53/2
usemtl retro/FLOOR_1A
f  46/54/3  42/55/3  41/56/3  47/57/3
usemtl retro/FLOOR_1A
f  48/57/4  44/56/4  43/55/4  45/54/4
usemtl retro/FLOOR_1A
f  47/53/5  41/52/5  44/51/5  48/50/5
usemtl retro/FLOOR_1A
f  48/39/6  45/36/6  46/49/6  47/48/6

o entity0_brush6
usemtl retro/FLOOR_1A
f  49/58/1  50/59/1  51/60/1  52/61/1
usemtl retro/FLOOR_1A
f  53/62/2  51/63/2  50/64/2  54/65/2
usemtl retro/FLOOR_1A
f  54/66/3  50/67/3  49/68/3  55/69/3
usemtl retro/FLOOR_1A
f  56/70/4  52/71/4  51/59/4  53/72/4
usemtl retro/FLOOR_1A
f  55/73/5  49/74/5  52/50/5  56/75/5
usemtl retro/FLOOR_1A
f  56/76/6  53/50/6  54/74/6  55/77/6

o entity0_brush7
usemtl retro/FLOOR_1A
f  57/78/1  58/79/1  59/80/1  60/81/1
usemtl retro/FLOOR_1A
f  61/82/2  59/83/2  58/84/2  62/85/2
usemtl retro/FLOOR_1A
f  62/86/3  58/87/3  57/88/3  63/89/3
usemtl retro/FLOOR_1A
f  64/89/4  60/88/4  59/87/4  61/86/4
usemtl retro/FLOOR_1A
f  63/90/5  57/91/5  60/92/5  64/93/5
usemtl retro/FLOOR_1A
f  64/94/6  61/95/6  62/96/6  63/97/6

o entity0_brush8
usemtl retro/FLOOR_1A
f  65/98/1  66/99/1  67/100/1  68/101/1
usemtl retro/FLOOR_1A
f  69/102/2  67/40/2  66/103/2  70/104/2
usemtl retro/FLOOR_1A
f  70/105/3  66/106/3  65/107/3  71/108/3
usemtl retro/FLOOR_1A
f  72/108/4  68/107/4  67/106/4  69/105/4
usemtl retro/FLOOR_1A
f  71/109/5  65/110/5  68/111/5  72/112/5
usemtl retro/FLOOR_1A
f  72/101/6  69/100/6  70/99/6  71/98/6

o entity0_brush9
usemtl retro/FLOOR_1A
f  73/113/1  74/114/1  75/115/1  76/116/1
usemtl retro/FLOOR_1A
f  77/117/2  75/118/2  74/17/2  78/119/2
usemtl retro/FLOOR_1A
f  78/120/3  74/2/3  73/121/3  79/122/3
usemtl retro/FLOOR_1A
f  80/123/4  76/124/4  75/125/4  77/126/4
usemtl retro/FLOOR_1A
f  79/127/5  73/128/5  76/129/5  80/130/5
usemtl retro/FLOOR_1A
f  80/116/6  77/115/6  78/114/6  79/113/6

o entity0_brush10
usemtl retro/FLOOR_1A
f  81/7/1  82/13/1  83/36/1  84/131/1
usemtl retro/FLOOR_1A
f  85/44/2  83/132/2  82/133/2  86/134/2
usemtl retro/FLOOR_1A
f  86/135/3  82/136/3  81/137/3  87/138/3
usemtl retro/FLOOR_1A
f  88/138/4  84/137/4  83/136/4  85/135/4
usemtl retro/FLOOR_1A
f  87/134/5  81/133/5  84/132/5  88/44/5
usemtl retro/FLOOR_1A
f  88/139/6  85/140/6  86/141/6  87/142/6

o entity0_brush11
usemtl retro/FLOOR_1A
f  89/143/1  90/144/1  91/145/1  92/146/1
usemtl retro/FLOOR_1A
f  93/147/2  91/148/2  90/149/2  94/150/2
usemtl retro/FLOOR_1A
f  94/151/3  90/152/3  89/153/3  95/154/3
usemtl retro/FLOOR_1A
f  96/154/4  92/153/4  91/152/4  93/151/4
usemtl retro/FLOOR_1A
f  95/150/5  89/149/5  92/148/5  96/147/5
usemtl retro/FLOOR_1A
f  96/155/6  93/8/6  94/156/6  95/157/6

o entity0_brush12
usemtl retro/FLOOR_1A
f  97/158/1  98/159/1  99/160/1  100/161/1
usemtl retro/FLOOR_1A
f  101/72/2  99/162/2  98/163/2  102/164/2
usemtl retro/FLOOR_1A
f  102/165/3  98/166/3  97/167/3  103/168/3
usemtl retro/FLOOR_1A
f  104/169/4  100/170/4  99/171/4  101/172/4
usemtl retro/FLOOR_1A
f  103/173/5  97/174/5  100/175/5  104/176/5
usemtl retro/FLOOR_1A
f  104/161/6  101/160/6  102/159/6  103/158/6

o entity0_brush13
usemtl retro/FLOOR_2A
f  105/177/1  106/178/1  107/179/1  108/180/1
usemtl retro/FLOOR_2A
f  109/181/2  107/21/2  106/182/2  110/183/2
usemtl retro/FLOOR_2A
f  110/184/3  106/185/3  105/186/3  111/187/3
usemtl retro/FLOOR_2A
f  112/187/4  108/186/4  107/185/4  109/184/4
usemtl retro/FLOOR_2A
f  111/183/5  105/182/5  108/21/5  112/181/5
usemtl retro/FLOOR_2A
f  112/180/6  109/179/6  110/178/6  111/177/6

o entity1_brush0
usemtl flags/clip
f  113/188/1  114/189/1  115/190/1  116/191/1
usemtl flags/clip
f  117/25/2  115/192/2  114/193/2  118/194/2
usemtl flags/clip
f  118/195/3  114/196/3  113/197/3  119/198/3
usemtl flags/clip
f  120/198/4  116/197/4  115/196/4  117/195/4
usemtl flags/clip
f  119/194/5  113/193/5  116/192/5  120/25/5
usemtl flags/clip
f  120/191/6  117/190/6  118/189/6  119/188/6

o entity2_brush0
usemtl retro/RIVET_2B
f  121/199/1  122/200/1  123/201/1
usemtl retro/RIVET_2B
f  124/202/7  122/203/7  121/204/7  125/205/7
usemtl retro/RIVET_2B
f  126/206/4  123/207/4  122/208/4  124/209/4
usemtl retro/RIVET_2B
f  125/210/5  121/211/5  123/212/5  126/213/5
usemtl retro/RIVET_2B
f  124/200/6  125/199/6  126/201/6

o entity2_brush1
usemtl retro/RIVET_2B
f  127/214/1  128/215/1  129/203/1  130/204/1
usemtl retro/RIVET_2B
f  131/216/2  129/217/2  128/218/2  132/219/2
usemtl retro/RIVET_2B
f  132/220/3  128/221/3  127/222/3  133/223/3
usemtl retro/RIVET_2B
f  134/223/4  130/222/4  129/221/4  131/220/4
usemtl retro/RIVET_2B
f  133/219/5  127/218/5  130/217/5  134/216/5
usemtl retro/RIVET_2B
f  134/204/6  131/203/6  132/215/6  133/214/6

o entity2_brush2
usemtl retro/RIVET_2B
f  135/224/1  136/225/1  137/226/1
usemtl retro/RIVET_2B
f  138/227/7  136/104/7  135/228/7  139/229/7
usemtl retro/RIVET_2B
f  140/230/4  137/33/4  136/90/4  138/231/4
usemtl retro/RIVET_2B
f  139/232/5  135/233/5  137/234/5  140/235/5
usemtl retro/RIVET_2B
f  138/225/6  139/224/6  140/226/6

o entity2_brush3
usemtl retro/RIVET_2B
f  141/199/1  142/200/1  143/201/1
usemtl retro/RIVET_2B
f  144/202/7  142/203/7  141/204/7  145/205/7
usemtl retro/RIVET_2B
f  146/206/4  143/207/4  142/208/4  144/209/4
usemtl retro/RIVET_2B
f  145/210/5  141/211/5  143/212/5  146/213/5
usemtl retro/RIVET_2B
f  144/200/6  145/199/6  146/201/6

o entity2_brush4
usemtl retro/RIVET_2B
f  147/224/1  148/236/1  149/237/1
usemtl retro/RIVET_2B
f  150/227/7  148/104/7  147/228/7  151/229/7
usemtl retro/RIVET_2B
f  152/230/4  149/33/4  148/90/4  150/231/4
usemtl retro/RIVET_2B
f  151/232/5  147/233/5  149/234/5  152/235/5
usemtl retro/RIVET_2B
f  150/236/6  151/224/6  152/237/6

o entity2_brush5
usemtl retro/RIVET_2B
f  153/238/1  154/239/1  155/240/1
usemtl retro/RIVET_2B
f  156/227/7  154/104/7  153/228/7  157/229/7
usemtl retro/RIVET_2B
f  158/230/4  155/33/4  154/90/4  156/231/4
usemtl retro/RIVET_2B
f  157/241/5  153/242/5  155/243/5  158/244/5
usemtl retro/RIVET_2B
f  156/239/6  157/238/6  158/240/6

o entity2_brush6
usemtl retro/RIVET_2B
f  159/199/1  160/245/1  161/201/1
usemtl retro/RIVET_2B
f  162/202/7  160/203/7  159/204/7  163/205/7
usemtl retro/RIVET_2B
f  164/206/4  161/207/4  160/208/4  162/209/4
usemtl retro/RIVET_2B
f  163/210/5  159/211/5  161/212/5  164/213/5
usemtl retro/RIVET_2B
f  162/245/6  163/199/6  164/201/6

o entity2_brush7
usemtl retro/RIVET_2B
f  165/199/1  166/200/1  167/201/1
usemtl retro/RIVET_2B
f  168/202/7  166/203/7  165/204/7  169/205/7
usemtl retro/RIVET_2B
f  170/206/4  167/207/4  166/208/4  168/209/4
usemtl retro/RIVET_2B
f  169/210/5  165/211/5  167/212/5  170/213/5
usemtl retro/RIVET_2B
f  168/200/6  169/199/6  170/201/6

o entity2_brush8
usemtl retro/RIVET_2B
f  171/246/1  172/247/1  173/248/1
usemtl retro/RIVET_2B
f  174/227/7  172/104/7  171/228/7  175/229/7
usemtl retro/RIVET_2B
f  176/230/4  173/33/4  172/90/4  174/231/4
usemtl retro/RIVET_2B
f  175/241/5  171/242/5  173/243/5  176/244/5
usemtl retro/RIVET_2B
f  174/247/6  175/246/6  176/248/6

o entity2_brush9
usemtl flags/clip
f  177/249/1  178/191/1  179/250/1  180/251/1
usemtl flags/clip
f  181/252/2  179/253/2  178/192/2  182/25/2
usemtl flags/clip
f  182/198/8  178/197/8  177/254/8  183/255/8
usemtl flags/clip
f  184/255/9  180/254/9  179/197/9  181/198/9
usemtl flags/clip
f  183/256/5  177/257/5  180/258/5  184/259/5
usemtl flags/clip
f  184/251/6  181/250/6  182/191/6  183/249/6

o entity2_brush10
usemtl retro/RIVET_2B
f  185/224/1  186/225/1  187/226/1
usemtl retro/RIVET_2B
f  188/227/7  186/104/7  185/228/7  189/229/7
usemtl retro/RIVET_2B
f  190/230/4  187/33/4  186/90/4  188/231/4
usemtl retro/RIVET_2B
f  189/232/5  185/233/5  187/234/5  190/235/5
usemtl retro/RIVET_2B
f  188/225/6  189/224/6  190/226/6

o entity2_brush11
usemtl retro/RIVET_2B
f  191/246/1  192/260/1  193/261/1
usemtl retro/RIVET_2B
f  194/262/7  192/263/7  191/264/7  195/265/7
usemtl retro/RIVET_2B
f  196/266/4  193/267/4  192/91/4  194/268/4
usemtl retro/RIVET_2B
f  195/241/5  191/242/5  193/243/5  196/244/5
usemtl retro/RIVET_2B
f  194/260/6  195/246/6  196/261/6

o entity2_brush12
usemtl retro/RIVET_2B
f  197/199/1  198/200/1  199/201/1
usemtl retro/RIVET_2B
f  200/202/7  198/203/7  197/204/7  201/205/7
usemtl retro/RIVET_2B
f  202/206/4  199/207/4  198/208/4  200/209/4
usemtl retro/RIVET_2B
f  201/210/5  197/211/5  199/212/5  202/213/5
usemtl retro/RIVET_2B
f  200/200/6  201/199/6  202/201/6

o entity2_brush13
usemtl retro/RIVET_2B
f  203/224/1  204/225/1  205/226/1
usemtl retro/RIVET_2B
f  206/227/7  204/104/7  203/228/7  207/229/7
usemtl retro/RIVET_2B
f  208/230/4  205/33/4  204/90/4  206/231/4
usemtl retro/RIVET_2B
f  207/232/5  203/233/5  205/234/5  208/235/5
usemtl retro/RIVET_2B
f  206/225/6  207/224/6  208/226/6

o entity2_brush14
usemtl retro/RIVET_2B
f  209/224/1  210/236/1  211/237/1
usemtl retro/RIVET_2B
f  212/227/7  210/104/7  209/228/7  213/229/7
usemtl retro/RIVET_2B
f  214/206/4  211/207/4  210/208/4  212/209/4
usemtl retro/RIVET_2B
f  213/232/5  209/233/5  211/234/5  214/235/5
usemtl retro/RIVET_2B
f  212/236/6  213/224/6  214/237/6

o entity2_brush15
usemtl retro/RIVET_2B
f  215/199/1  216/200/1  217/201/1
usemtl retro/RIVET_2B
f  218/202/7  216/203/7  215/204/7  219/205/7
usemtl retro/RIVET_2B
f  220/206/4  217/207/4  216/208/4  218/209/4
usemtl retro/RIVET_2B
f  219/210/5  215/211/5  217/212/5  220/213/5
usemtl retro/RIVET_2B
f  218/200/6  219/199/6  220/201/6

o entity2_brush16
usemtl retro/RIVET_2B
f  221/238/1  222/239/1  223/240/1
usemtl retro/RIVET_2B
f  224/227/7  222/104/7  221/228/7  225/229/7
usemtl retro/RIVET_2B
f  226/230/4  223/33/4  222/90/4  224/231/4
usemtl retro/RIVET_2B
f  225/241/5  221/242/5  223/243/5  226/244/5
usemtl retro/RIVET_2B
f  224/239/6  225/238/6  226/240/6

o entity2_brush17
usemtl retro/RIVET_2B
f  227/269/1  228/270/1  229/271/1
usemtl retro/RIVET_2B
f  230/262/7  228/263/7  227/264/7  231/265/7
usemtl retro/RIVET_2B
f  232/230/4  229/33/4  228/90/4  230/231/4
usemtl retro/RIVET_2B
f  231/241/5  227/242/5  229/243/5  232/244/5
usemtl retro/RIVET_2B
f  230/270/6  231/269/6  232/271/6

