mtllib no_floor_end.mtl
# vertices
v -56 -128 -320
v -56 -128 -0
v -56 0 -0
v -56 0 -320
v -24 0 -0
v -24 -128 -0
v -24 -128 -320
v -24 0 -320
v -56 -144 -320
v -56 -144 -146
v -56 -128 -146
v -56 -128 -320
v 144 -128 -146
v 144 -144 -146
v 144 -144 -320
v 144 -128 -320
v -24 -128 -320
v -24 -128 -256
v -24 0 -256
v -24 0 -320
v 144 0 -256
v 144 -128 -256
v 144 -128 -320
v 144 0 -320
v 136 -128 -272
v 136 -128 -0
v 136 0 -0
v 136 0 -272
v 164 0 -0
v 164 -128 -0
v 164 -128 -272
v 164 0 -272
v 87 -128 -48
v 87 -128 -0
v 87 -2 -0
v 87 -2 -48
v 144 -2 -0
v 144 -128 -0
v 144 -128 -48
v 144 -2 -48
v -24 0 -320
v -24 0 -256
v -24 128 -256
v -24 128 -320
v 144 128 -256
v 144 0 -256
v 144 0 -320
v 144 128 -320
v 24 -128 -146
v 24 -128 -0
v 24 0 -0
v 24 0 -146
v 87 0 -0
v 87 -128 -0
v 87 -128 -146
v 87 0 -146
v -56 -128 -0
v -56 -128 150
v -56 0 150
v -56 0 -0
v 164 0 150
v 164 -128 150
v 164 -128 -0
v 164 0 -0
v -24 -8 -8
v -24 -8 -0
v -24 0 -0
v -24 0 -8
v 24 0 -0
v 24 -8 -0
v 24 -8 -8
v 24 0 -8
v -24 -120 -120
v -24 -104 -104
v -24 -104 -120
v 24 -104 -104
v 24 -120 -120
v 24 -104 -120
v -24 -144 -146
v -24 -144 -130
v -24 -128 -130
v -24 -128 -146
v 24 -128 -130
v 24 -144 -130
v 24 -144 -146
v 24 -128 -146
v -24 -40 -40
v -24 -24 -24
v -24 -24 -40
v 24 -24 -24
v 24 -40 -40
v 24 -24 -40
v -24 -104 -104
v -24 -88 -88
v -24 -88 -104
v 24 -88 -88
v 24 -104 -104
v 24 -88 -104
v -24 -80 -80
v -24 -64 -64
v -24 -64 -80
v 24 -64 -64
v 24 -80 -80
v 24 -64 -80
v -24 -56 -56
v -24 -40 -40
v -24 -40 -56
v 24 -40 -40
v 24 -56 -56
v 24 -40 -56
v -24 -96 -96
v -24 -80 -80
v -24 -80 -96
v 24 -80 -80
v 24 -96 -96
v 24 -80 -96
v -24 -128 -128
v -24 -112 -112
v -24 -112 -128
v 24 -112 -112
v 24 -128 -128
v 24 -112 -128
v -24 -32 -32
v -24 -16 -16
v -24 -16 -32
v 24 -16 -16
v 24 -32 -32
v 24 -16 -32
v -24 -144 -144
v -24 -8 -8
v -24 0 -8
v -24 -136 -144
v 24 0 -8
v 24 -8 -8
v 24 -144 -144
v 24 -136 -144
v -24 -64 -64
v -24 -48 -48
v -24 -48 -64
v 24 -48 -48
v 24 -64 -64
v 24 -48 -64
v -24 -16 -16
v -24 0 -0
v -24 0 -16
v 24 0 -0
v 24 -16 -16
v 24 0 -16
v -24 -136 -136
v -24 -120 -120
v -24 -120 -136
v 24 -120 -120
v 24 -136 -136
v 24 -120 -136
v -24 -72 -72
v -24 -56 -56
v -24 -56 -72
v 24 -56 -56
v 24 -72 -72
v 24 -56 -72
v -24 -88 -88
v -24 -72 -72
v -24 -72 -88
v 24 -72 -72
v 24 -88 -88
v 24 -72 -88
v -24 -112 -112
v -24 -96 -96
v -24 -96 -112
v 24 -96 -96
v 24 -112 -112
v 24 -96 -112
v -24 -48 -48
v -24 -32 -32
v -24 -32 -48
v 24 -32 -32
v 24 -48 -48
v 24 -32 -48
v -24 -24 -24
v -24 -8 -8
v -24 -8 -24
v 24 -8 -8
v 24 -24 -24
v 24 -8 -24

# texture coordinates
vt 4.625 -2
vt -0.375 -2
vt -0.375 -0
vt 4.625 -0
vt -0.875 -0
vt -0.875 -2
vt -0.375 -0.375
vt -0.875 -0.375
vt -0.875 4.625
vt -0.375 4.625
vt 0.125 6
vt -0.375 6
vt -0.375 1
vt 0.125 1
vt 4.75 -0
vt -0.25 -0
vt -0.25 -2
vt 4.75 -2
vt 4.75 -2.5
vt 2.03125 -2.5
vt 2.03125 -2.25
vt 4.75 -2.25
vt 1.625 -2.25
vt -1.5 -2.25
vt -1.5 -2.5
vt 1.625 -2.5
vt 1.625 2.03125
vt -1.5 2.03125
vt -1.5 4.75
vt 1.625 4.75
vt 5.5 -2.125
vt 4.5 -2.125
vt 4.5 -0.125
vt 5.5 -0.125
vt 1.625 -0
vt -1 -0
vt -1 -2
vt 1.625 -2
vt 2 4.5
vt -0.625 4.5
vt -0.625 5.5
vt 2 5.5
vt 2 -2.125
vt -0.625 -2.125
vt -0.625 -0.125
vt 2 -0.125
vt 3.5 -1.5
vt -0.75 -1.5
vt -0.75 0.5
vt 3.5 0.5
vt 2.6875 0.125
vt 2.25 0.125
vt 2.25 -1.875
vt 2.6875 -1.875
vt 2.6875 0.0625
vt 2.25 0.0625
vt 2.25 4.3125
vt 2.6875 4.3125
vt 4.3125 0.125
vt 0.0625 0.125
vt 0.0625 -1.875
vt 4.3125 -1.875
vt 0.75 -2
vt 0 -2
vt 0 -0.03125
vt 0.75 -0.03125
vt 1.75 -0.03125
vt 0.859375 -0.03125
vt 0.859375 -2
vt 1.75 -2
vt 1.75 -0
vt 0.859375 -0
vt 0.859375 0.75
vt 1.75 0.75
vt 2.625 -2
vt 1.734375 -2
vt 1.734375 -0.03125
vt 2.625 -0.03125
vt 4.5 1.875
vt 5.5 1.875
vt 1.625 2
vt -1 2
vt -0.625 1.875
vt 2 1.875
vt 2.28125 -2
vt 0 -0
vt 2.28125 -0
vt 1.546875 -0
vt 0.5625 -0
vt 0.5625 -2
vt 1.546875 -2
vt 0.5625 2.28125
vt 1.546875 2.28125
vt 1.421875 -2
vt 0.4375 -2
vt 0.4375 -0
vt 1.421875 -0
vt 0.78125 -2
vt -1.5625 -2
vt -1.5625 -0
vt 0.78125 -0
vt 2.75 -0
vt -0.6875 -0
vt -0.6875 -2
vt 2.75 -2
vt 2.75 -1.5625
vt -0.6875 -1.5625
vt -0.6875 0.78125
vt 2.75 0.78125
vt -0.8125 -2
vt -0.8125 -0
vt 2.625 -0
vt 0.5 -0.5
vt 0 -0.5
vt 0.5 -0
vt 1 -0
vt -2 -0
vt -2 -0.5
vt 1 -0.5
vt -2 0.5
vt 1 0.5
vt 2.125 -2.125
vt 1.8750001 -1.875
vt 2.125 -1.875
vt 1.875 -0.25
vt 1.875 -1
vt 2.125 -1
vt 2.125 -0.25
vt 2 -0.25
vt 2 -1
vt 1.75 -1
vt 1.75 -0.25
vt -0.25 -2.125
vt -1 -2.125
vt -1 -1.875
vt -0.25 -1.875
vt 2.125 -2.25
vt 1.875 -2.25
vt 1.875 -2
vt 2.125 -2
vt 0.375 -2
vt -0.375 -2.25
vt 0.375 -2.25
vt 0.375 1.875
vt -0.375 1.875
vt -0.375 2.125
vt 0.375 2.125
vt 1.125 -1.125
vt 0.87499994 -0.875
vt 1.125 -0.875
vt 0.875 -0.25
vt 0.875 -1
vt 1.125 -1
vt 1.125 -0.25
vt 1 -0.25
vt 1 -1
vt 0.75 -1
vt 0.75 -0.25
vt -0.25 -1.125
vt -1 -1.125
vt -1 -0.875
vt -0.25 -0.875
vt 0.875 -0.87499994
vt 1.125 -0.87499994
vt 1.125 -0.125
vt 0.87499994 0.125
vt 1.125 0.125
vt -0.25 -0.125
vt -1 -0.125
vt -1 0.125
vt -0.25 0.125
vt 0.12500003 -0.125
vt -0.12499997 0.125
vt 0.12500003 0.125
vt 9 -8.5
vt 0.5 0.5
vt 9 -8
vt -2 9
vt 1 9
vt 1 -8.5
vt -2 -8.5
vt -2 -8
vt 1 -8
vt 0.12500001 -0.125
vt -0.124999985 0.12499999
vt 0.12500001 0.12499999
vt -0.125 -0.25
vt -0.125 -1
vt 0.125 -1
vt 0.125 -0.25
vt 0 -0.25
vt 0 -1
vt -0.25 -1
vt -0.25 -0.25
vt 1.875 -1.875
vt 0.875 -0.875
vt 0.12500003 -0.12500001
vt -0.12499997 0.124999985
vt 0.12500003 0.124999985

# normals
vn -1 0 -0
vn 0 0 1
vn 0 -1 -0
vn 0 1 -0
vn 0 0 -1
vn 1 0 -0
vn -0 -0.7071067811865475 0.7071067811865475
vn 0 -0.7071067811865476 0.7071067811865476
vn 0 0.7071067811865476 -0.7071067811865476

o entity0_brush0
usemtl retro/FLOOR_1A
f  1/1/1  2/2/1  3/3/1  4/4/1
usemtl retro/FLOOR_1A
f  5/3/2  3/5/2  2/6/2  6/2/2
usemtl retro/FLOOR_1A
f  6/7/3  2/8/3  1/9/3  7/10/3
usemtl retro/FLOOR_1A
f  8/11/4  4/12/4  3/13/4  5/14/4
usemtl retro/FLOOR_1A
f  7/2/5  1/6/5  4/5/5  8/3/5
usemtl retro/FLOOR_1A
f  8/15/6  5/16/6  6/17/6  7/18/6

o entity0_brush1
usemtl retro/FLOOR_2A
f  9/19/1  10/20/1  11/21/1  12/22/1
usemtl retro/FLOOR_2A
f  13/23/2  11/24/2  10/25/2  14/26/2
usemtl retro/FLOOR_2A
f  14/27/3  10/28/3  9/29/3  15/30/3
usemtl retro/FLOOR_2A
f  16/30/4  12/29/4  11/28/4  13/27/4
usemtl retro/FLOOR_2A
f  15/26/5  9/25/5  12/24/5  16/23/5
usemtl retro/FLOOR_2A
f  16/22/6  13/21/6  14/20/6  15/19/6

o entity0_brush2
usemtl retro/FLOOR_1A
f  17/31/1  18/32/1  19/33/1  20/34/1
usemtl retro/FLOOR_1A
f  21/35/2  19/36/2  18/37/2  22/38/2
usemtl retro/FLOOR_1A
f  22/39/3  18/40/3  17/41/3  23/42/3
usemtl retro/FLOOR_1A
f  24/42/4  20/41/4  19/40/4  21/39/4
usemtl retro/FLOOR_1A
f  23/43/5  17/44/5  20/45/5  24/46/5
usemtl retro/FLOOR_1A
f  24/34/6  21/33/6  22/32/6  23/31/6

o entity0_brush3
usemtl retro/FLOOR_1A
f  25/47/1  26/48/1  27/49/1  28/50/1
usemtl retro/FLOOR_1A
f  29/51/2  27/52/2  26/53/2  30/54/2
usemtl retro/FLOOR_1A
f  30/55/3  26/56/3  25/57/3  31/58/3
usemtl retro/FLOOR_1A
f  32/58/4  28/57/4  27/56/4  29/55/4
usemtl retro/FLOOR_1A
f  31/54/5  25/53/5  28/52/5  32/51/5
usemtl retro/FLOOR_1A
f  32/59/6  29/60/6  30/61/6  31/62/6

o entity0_brush4
usemtl retro/FLOOR_1A
f  33/63/1  34/64/1  35/65/1  36/66/1
usemtl retro/FLOOR_1A
f  37/67/2  35/68/2  34/69/2  38/70/2
usemtl retro/FLOOR_1A
f  38/71/3  34/72/3  33/73/3  39/74/3
usemtl retro/FLOOR_1A
f  40/74/4  36/73/4  35/72/4  37/71/4
usemtl retro/FLOOR_1A
f  39/75/5  33/76/5  36/77/5  40/78/5
usemtl retro/FLOOR_1A
f  40/66/6  37/65/6  38/64/6  39/63/6

o entity0_brush5
usemtl retro/FLOOR_1A
f  41/34/1  42/33/1  43/79/1  44/80/1
usemtl retro/FLOOR_1A
f  45/81/2  43/82/2  42/36/2  46/35/2
usemtl retro/FLOOR_1A
f  46/39/3  42/40/3  41/41/3  47/42/3
usemtl retro/FLOOR_1A
f  48/42/4  44/41/4  43/40/4  45/39/4
usemtl retro/FLOOR_1A
f  47/46/5  41/45/5  44/83/5  48/84/5
usemtl retro/FLOOR_1A
f  48/80/6  45/79/6  46/33/6  47/34/6

o entity0_brush6
usemtl retro/FLOOR_1A
f  49/85/1  50/64/1  51/86/1  52/87/1
usemtl retro/FLOOR_1A
f  53/88/2  51/89/2  50/90/2  54/91/2
usemtl retro/FLOOR_1A
f  54/88/3  50/89/3  49/92/3  55/93/3
usemtl retro/FLOOR_1A
f  56/93/4  52/92/4  51/89/4  53/88/4
usemtl retro/FLOOR_1A
f  55/94/5  49/95/5  52/96/5  56/97/5
usemtl retro/FLOOR_1A
f  56/87/6  53/86/6  54/64/6  55/85/6

o entity0_brush7
usemtl retro/FLOOR_1A
f  57/98/1  58/99/1  59/100/1  60/101/1
usemtl retro/FLOOR_1A
f  61/102/2  59/103/2  58/104/2  62/105/2
usemtl retro/FLOOR_1A
f  62/106/3  58/107/3  57/108/3  63/109/3
usemtl retro/FLOOR_1A
f  64/109/4  60/108/4  59/107/4  61/106/4
usemtl retro/FLOOR_1A
f  63/75/5  57/110/5  60/111/5  64/112/5
usemtl retro/FLOOR_1A
f  64/101/6  61/100/6  62/99/6  63/98/6

o entity1_brush0
usemtl flags/clip
f  65/113/1  66/114/1  67/86/1  68/115/1
usemtl flags/clip
f  69/116/2  67/117/2  66/118/2  70/119/2
usemtl flags/clip
f  70/116/3  66/117/3  65/120/3  71/121/3
usemtl flags/clip
f  72/121/4  68/120/4  67/117/4  69/116/4
usemtl flags/clip
f  71/119/5  65/118/5  68/117/5  72/116/5
usemtl flags/clip
f  72/115/6  69/86/6  70/114/6  71/113/6

o entity2_brush0
usemtl retro/RIVET_2B
f  73/122/1  74/123/1  75/124/1
usemtl retro/RIVET_2B
f  76/125/7  74/126/7  73/127/7  77/128/7
usemtl retro/RIVET_2B
f  78/129/4  75/130/4  74/131/4  76/132/4
usemtl retro/RIVET_2B
f  77/133/5  73/134/5  75/135/5  78/136/5
usemtl retro/RIVET_2B
f  76/123/6  77/122/6  78/124/6

o entity2_brush1
usemtl retro/RIVET_2B
f  79/137/1  80/138/1  81/139/1  82/140/1
usemtl retro/RIVET_2B
f  83/141/2  81/2/2  80/142/2  84/143/2
usemtl retro/RIVET_2B
f  84/144/3  80/145/3  79/146/3  85/147/3
usemtl retro/RIVET_2B
f  86/147/4  82/146/4  81/145/4  83/144/4
usemtl retro/RIVET_2B
f  85/143/5  79/142/5  82/2/5  86/141/5
usemtl retro/RIVET_2B
f  86/140/6  83/139/6  84/138/6  85/137/6

o entity2_brush2
usemtl retro/RIVET_2B
f  87/148/1  88/149/1  89/150/1
usemtl retro/RIVET_2B
f  90/151/7  88/152/7  87/153/7  91/154/7
usemtl retro/RIVET_2B
f  92/155/4  89/156/4  88/157/4  90/158/4
usemtl retro/RIVET_2B
f  91/159/5  87/160/5  89/161/5  92/162/5
usemtl retro/RIVET_2B
f  90/149/6  91/148/6  92/150/6

o entity2_brush3
usemtl retro/RIVET_2B
f  93/122/1  94/123/1  95/124/1
usemtl retro/RIVET_2B
f  96/125/7  94/126/7  93/127/7  97/128/7
usemtl retro/RIVET_2B
f  98/129/4  95/130/4  94/131/4  96/132/4
usemtl retro/RIVET_2B
f  97/133/5  93/134/5  95/135/5  98/136/5
usemtl retro/RIVET_2B
f  96/123/6  97/122/6  98/124/6

o entity2_brush4
usemtl retro/RIVET_2B
f  99/148/1  100/163/1  101/164/1
usemtl retro/RIVET_2B
f  102/151/7  100/152/7  99/153/7  103/154/7
usemtl retro/RIVET_2B
f  104/155/4  101/156/4  100/157/4  102/158/4
usemtl retro/RIVET_2B
f  103/159/5  99/160/5  101/161/5  104/162/5
usemtl retro/RIVET_2B
f  102/163/6  103/148/6  104/164/6

o entity2_brush5
usemtl retro/RIVET_2B
f  105/165/1  106/166/1  107/167/1
usemtl retro/RIVET_2B
f  108/151/7  106/152/7  105/153/7  109/154/7
usemtl retro/RIVET_2B
f  110/155/4  107/156/4  106/157/4  108/158/4
usemtl retro/RIVET_2B
f  109/168/5  105/169/5  107/170/5  110/171/5
usemtl retro/RIVET_2B
f  108/166/6  109/165/6  110/167/6

o entity2_brush6
usemtl retro/RIVET_2B
f  111/122/1  112/123/1  113/124/1
usemtl retro/RIVET_2B
f  114/125/7  112/126/7  111/127/7  115/128/7
usemtl retro/RIVET_2B
f  116/129/4  113/130/4  112/131/4  114/132/4
usemtl retro/RIVET_2B
f  115/133/5  111/134/5  113/135/5  116/136/5
usemtl retro/RIVET_2B
f  114/123/6  115/122/6  116/124/6

o entity2_brush7
usemtl retro/RIVET_2B
f  117/122/1  118/123/1  119/124/1
usemtl retro/RIVET_2B
f  120/125/7  118/126/7  117/127/7  121/128/7
usemtl retro/RIVET_2B
f  122/129/4  119/130/4  118/131/4  120/132/4
usemtl retro/RIVET_2B
f  121/133/5  117/134/5  119/135/5  122/136/5
usemtl retro/RIVET_2B
f  120/123/6  121/122/6  122/124/6

o entity2_brush8
usemtl retro/RIVET_2B
f  123/172/1  124/173/1  125/174/1
usemtl retro/RIVET_2B
f  126/151/7  124/152/7  123/153/7  127/154/7
usemtl retro/RIVET_2B
f  128/155/4  125/156/4  124/157/4  126/158/4
usemtl retro/RIVET_2B
f  127/168/5  123/169/5  125/170/5  128/171/5
usemtl retro/RIVET_2B
f  126/173/6  127/172/6  128/174/6

o entity2_brush9
usemtl flags/clip
f  129/175/1  130/115/1  131/176/1  132/177/1
usemtl flags/clip
f  133/121/2  131/120/2  130/117/2  134/116/2
usemtl flags/clip
f  134/121/8  130/120/8  129/178/8  135/179/8
usemtl flags/clip
f  136/179/9  132/178/9  131/120/9  133/121/9
usemtl flags/clip
f  135/180/5  129/181/5  132/182/5  136/183/5
usemtl flags/clip
f  135/175/6  136/177/6  133/176/6  134/115/6

o entity2_brush10
usemtl retro/RIVET_2B
f  137/148/1  138/149/1  139/150/1
usemtl retro/RIVET_2B
f  140/151/7  138/152/7  137/153/7  141/154/7
usemtl retro/RIVET_2B
f  142/155/4  139/156/4  138/157/4  140/158/4
usemtl retro/RIVET_2B
f  141/159/5  137/160/5  139/161/5  142/162/5
usemtl retro/RIVET_2B
f  140/149/6  141/148/6  142/150/6

o entity2_brush11
usemtl retro/RIVET_2B
f  143/184/1  144/185/1  145/186/1
usemtl retro/RIVET_2B
f  146/187/7  144/188/7  143/189/7  147/190/7
usemtl retro/RIVET_2B
f  148/191/4  145/192/4  144/193/4  146/194/4
usemtl retro/RIVET_2B
f  147/168/5  143/169/5  145/170/5  148/171/5
usemtl retro/RIVET_2B
f  146/185/6  147/184/6  148/186/6

o entity2_brush12
usemtl retro/RIVET_2B
f  149/122/1  150/195/1  151/124/1
usemtl retro/RIVET_2B
f  152/125/7  150/126/7  149/127/7  153/128/7
usemtl retro/RIVET_2B
f  154/129/4  151/130/4  150/131/4  152/132/4
usemtl retro/RIVET_2B
f  153/133/5  149/134/5  151/135/5  154/136/5
usemtl retro/RIVET_2B
f  152/195/6  153/122/6  154/124/6

o entity2_brush13
usemtl retro/RIVET_2B
f  155/148/1  156/196/1  157/150/1
usemtl retro/RIVET_2B
f  158/151/7  156/152/7  155/153/7  159/154/7
usemtl retro/RIVET_2B
f  160/155/4  157/156/4  156/157/4  158/158/4
usemtl retro/RIVET_2B
f  159/159/5  155/160/5  157/161/5  160/162/5
usemtl retro/RIVET_2B
f  158/196/6  159/148/6  160/150/6

o entity2_brush14
usemtl retro/RIVET_2B
f  161/148/1  162/163/1  163/164/1
usemtl retro/RIVET_2B
f  164/151/7  162/152/7  161/153/7  165/154/7
usemtl retro/RIVET_2B
f  166/129/4  163/130/4  162/131/4  164/132/4
usemtl retro/RIVET_2B
f  165/159/5  161/160/5  163/161/5  166/162/5
usemtl retro/RIVET_2B
f  164/163/6  165/148/6  166/164/6

o entity2_brush15
usemtl retro/RIVET_2B
f  167/122/1  168/123/1  169/124/1
usemtl retro/RIVET_2B
f  170/125/7  168/126/7  167/127/7  171/128/7
usemtl retro/RIVET_2B
f  172/129/4  169/130/4  168/131/4  170/132/4
usemtl retro/RIVET_2B
f  171/133/5  167/134/5  169/135/5  172/136/5
usemtl retro/RIVET_2B
f  170/123/6  171/122/6  172/124/6

o entity2_brush16
usemtl retro/RIVET_2B
f  173/165/1  174/166/1  175/167/1
usemtl retro/RIVET_2B
f  176/151/7  174/152/7  173/153/7  177/154/7
usemtl retro/RIVET_2B
f  178/155/4  175/156/4  174/157/4  176/158/4
usemtl retro/RIVET_2B
f  177/168/5  173/169/5  175/170/5  178/171/5
usemtl retro/RIVET_2B
f  176/166/6  177/165/6  178/167/6

o entity2_brush17
usemtl retro/RIVET_2B
f  179/197/1  180/198/1  181/199/1
usemtl retro/RIVET_2B
f  182/187/7  180/188/7  179/189/7  183/190/7
usemtl retro/RIVET_2B
f  184/155/4  181/156/4  180/157/4  182/158/4
usemtl retro/RIVET_2B
f  183/168/5  179/169/5  181/170/5  184/171/5
usemtl retro/RIVET_2B
f  182/198/6  183/197/6  184/199/6

